<svg width="40" height="43" viewBox="0 0 40 43" fill="none" xmlns="http://www.w3.org/2000/svg">
<path d="M22.18 28.2181H17.8C17.3173 28.2181 16.8544 28.4099 16.5131 28.7512C16.1718 29.0925 15.98 29.5554 15.98 30.0381L15.94 40.4181C15.94 40.6571 15.8929 40.8938 15.8015 41.1146C15.71 41.3354 15.5759 41.536 15.4069 41.705C15.2379 41.874 15.0373 42.0081 14.8165 42.0996C14.5957 42.191 14.359 42.2381 14.12 42.2381L1.82 42.2181C1.33731 42.2181 0.874382 42.0264 0.533066 41.685C0.19175 41.3437 0 40.8808 0 40.3981L0.0800018 12.1381C0.0803367 11.817 0.165623 11.5017 0.327202 11.2242C0.488781 10.9467 0.7209 10.7169 1 10.5581L19.04 0.238098C19.3143 0.0820476 19.6244 0 19.94 0C20.2556 0 20.5657 0.0820476 20.84 0.238098L39 10.5581C39.2791 10.7169 39.5112 10.9467 39.6728 11.2242C39.8344 11.5017 39.9197 11.817 39.92 12.1381L40 40.3981C40 40.8808 39.8083 41.3437 39.4669 41.685C39.1256 42.0264 38.6627 42.2181 38.18 42.2181L25.88 42.2381C25.641 42.2381 25.4043 42.191 25.1835 42.0996C24.9627 42.0081 24.7621 41.874 24.5931 41.705C24.4241 41.536 24.29 41.3354 24.1985 41.1146C24.1071 40.8938 24.06 40.6571 24.06 40.4181L24 30.0381C24 29.5554 23.8083 29.0925 23.4669 28.7512C23.1256 28.4099 22.6627 28.2181 22.18 28.2181Z" fill="white"/>
</svg>
