<svg width="425" height="44" viewBox="0 0 425 44" fill="none" xmlns="http://www.w3.org/2000/svg">
<g filter="url(#filter0_iiii_265_2360)">
<rect width="425" height="44" rx="22" fill="#D0D0D0" fill-opacity="0.5" style="mix-blend-mode:color-burn"/>
<rect width="425" height="44" rx="22" fill="black" fill-opacity="0.1" style="mix-blend-mode:luminosity"/>
<g opacity="0.8">
<path d="M28.917 27.834C30.3145 27.834 31.624 27.4121 32.7139 26.6914L36.5635 30.5498C36.8184 30.7959 37.1436 30.9189 37.4951 30.9189C38.2246 30.9189 38.7607 30.3477 38.7607 29.627C38.7607 29.293 38.6465 28.9678 38.4004 28.7217L34.5771 24.8809C35.3682 23.7559 35.834 22.3936 35.834 20.917C35.834 17.1113 32.7227 14 28.917 14C25.1201 14 22 17.1113 22 20.917C22 24.7227 25.1113 27.834 28.917 27.834ZM28.917 25.9883C26.1309 25.9883 23.8457 23.7031 23.8457 20.917C23.8457 18.1309 26.1309 15.8457 28.917 15.8457C31.7031 15.8457 33.9883 18.1309 33.9883 20.917C33.9883 23.7031 31.7031 25.9883 28.917 25.9883Z" fill="white"/>
</g>
<path d="M64.641 24.552H64.675L67.497 14.964H69.35L72.155 24.552H72.189L74.841 14.964H76.626L73.09 27H71.339L68.415 17.327H68.381L65.457 27H63.706L60.17 14.964H61.989L64.641 24.552ZM79.8438 20.166C80.0364 19.7693 80.3651 19.4293 80.8298 19.146C81.2944 18.8627 81.8158 18.721 82.3938 18.721C82.9151 18.721 83.3628 18.8117 83.7368 18.993C84.1108 19.163 84.4224 19.3953 84.6718 19.69C84.9211 19.9847 85.1024 20.3303 85.2158 20.727C85.3404 21.1237 85.4028 21.5487 85.4028 22.002V27H83.8048V22.546C83.8048 22.2173 83.7764 21.9057 83.7198 21.611C83.6744 21.3163 83.5838 21.0557 83.4478 20.829C83.3118 20.6023 83.1248 20.421 82.8868 20.285C82.6601 20.149 82.3598 20.081 81.9858 20.081C81.3511 20.081 80.8298 20.3247 80.4218 20.812C80.0138 21.288 79.8098 21.9283 79.8098 22.733V27H78.2118V14.148H79.8098V20.166H79.8438ZM93.1205 21.781C93.1205 21.1803 92.9392 20.7383 92.5765 20.455C92.2138 20.1603 91.7322 20.013 91.1315 20.013C90.6782 20.013 90.2475 20.1037 89.8395 20.285C89.4428 20.455 89.1085 20.676 88.8365 20.948L87.9865 19.928C88.3832 19.554 88.8648 19.2593 89.4315 19.044C90.0095 18.8287 90.6272 18.721 91.2845 18.721C91.8625 18.721 92.3612 18.806 92.7805 18.976C93.2112 19.1347 93.5625 19.3557 93.8345 19.639C94.1065 19.9223 94.3105 20.2567 94.4465 20.642C94.5825 21.0273 94.6505 21.441 94.6505 21.883V25.402C94.6505 25.674 94.6562 25.963 94.6675 26.269C94.6902 26.5637 94.7242 26.8073 94.7695 27H93.3245C93.2338 26.6147 93.1885 26.2293 93.1885 25.844H93.1375C92.8428 26.2747 92.4688 26.609 92.0155 26.847C91.5735 27.085 91.0465 27.204 90.4345 27.204C90.1172 27.204 89.7828 27.1587 89.4315 27.068C89.0915 26.9887 88.7798 26.8527 88.4965 26.66C88.2132 26.4673 87.9752 26.2123 87.7825 25.895C87.6012 25.5777 87.5105 25.1867 87.5105 24.722C87.5105 24.11 87.6748 23.6283 88.0035 23.277C88.3322 22.9143 88.7628 22.6423 89.2955 22.461C89.8282 22.2683 90.4288 22.1437 91.0975 22.087C91.7662 22.0303 92.4405 22.002 93.1205 22.002V21.781ZM92.7295 23.158C92.3328 23.158 91.9192 23.175 91.4885 23.209C91.0692 23.243 90.6838 23.311 90.3325 23.413C89.9925 23.515 89.7092 23.668 89.4825 23.872C89.2558 24.076 89.1425 24.348 89.1425 24.688C89.1425 24.926 89.1878 25.1243 89.2785 25.283C89.3805 25.4417 89.5108 25.572 89.6695 25.674C89.8282 25.776 90.0038 25.8497 90.1965 25.895C90.3892 25.929 90.5875 25.946 90.7915 25.946C91.5395 25.946 92.1118 25.725 92.5085 25.283C92.9165 24.8297 93.1205 24.263 93.1205 23.583V23.158H92.7295ZM101.097 20.251H98.9554V24.45C98.9554 24.9373 99.046 25.2887 99.2274 25.504C99.4087 25.708 99.6977 25.81 100.094 25.81C100.242 25.81 100.4 25.793 100.57 25.759C100.74 25.725 100.893 25.674 101.029 25.606L101.08 26.915C100.888 26.983 100.672 27.034 100.434 27.068C100.208 27.1133 99.9697 27.136 99.7204 27.136C98.961 27.136 98.3774 26.9263 97.9694 26.507C97.5727 26.0877 97.3744 25.4587 97.3744 24.62V20.251H95.8274V18.942H97.3744V16.63H98.9554V18.942H101.097V20.251ZM113.424 25.725C113.118 26.2123 112.699 26.5863 112.166 26.847C111.645 27.0963 111.095 27.221 110.517 27.221C109.894 27.221 109.333 27.1133 108.834 26.898C108.335 26.6713 107.91 26.3653 107.559 25.98C107.208 25.5947 106.936 25.1413 106.743 24.62C106.55 24.0987 106.454 23.5433 106.454 22.954C106.454 22.3647 106.55 21.815 106.743 21.305C106.936 20.7837 107.208 20.3303 107.559 19.945C107.922 19.5597 108.352 19.2593 108.851 19.044C109.35 18.8287 109.899 18.721 110.5 18.721C111.157 18.721 111.73 18.8627 112.217 19.146C112.704 19.418 113.09 19.7523 113.373 20.149H113.407V14.148H115.005V27H113.458V25.725H113.424ZM108.12 22.954C108.12 23.328 108.177 23.6907 108.29 24.042C108.403 24.3933 108.573 24.705 108.8 24.977C109.027 25.249 109.304 25.47 109.633 25.64C109.962 25.7987 110.347 25.878 110.789 25.878C111.197 25.878 111.565 25.7987 111.894 25.64C112.234 25.4813 112.523 25.2717 112.761 25.011C112.999 24.739 113.18 24.4273 113.305 24.076C113.441 23.7247 113.509 23.3563 113.509 22.971C113.509 22.5857 113.441 22.2173 113.305 21.866C113.18 21.5147 112.999 21.203 112.761 20.931C112.523 20.659 112.234 20.4437 111.894 20.285C111.565 20.1263 111.197 20.047 110.789 20.047C110.347 20.047 109.962 20.1263 109.633 20.285C109.304 20.4437 109.027 20.659 108.8 20.931C108.573 21.203 108.403 21.5147 108.29 21.866C108.177 22.2173 108.12 22.58 108.12 22.954ZM125.949 22.954C125.949 23.5773 125.836 24.1497 125.609 24.671C125.394 25.1923 125.088 25.6457 124.691 26.031C124.306 26.405 123.847 26.6997 123.314 26.915C122.781 27.119 122.209 27.221 121.597 27.221C120.985 27.221 120.413 27.119 119.88 26.915C119.347 26.6997 118.888 26.405 118.503 26.031C118.118 25.6457 117.812 25.1923 117.585 24.671C117.37 24.1497 117.262 23.5773 117.262 22.954C117.262 22.3307 117.37 21.764 117.585 21.254C117.812 20.7327 118.118 20.285 118.503 19.911C118.888 19.537 119.347 19.248 119.88 19.044C120.413 18.8287 120.985 18.721 121.597 18.721C122.209 18.721 122.781 18.8287 123.314 19.044C123.847 19.248 124.306 19.537 124.691 19.911C125.088 20.285 125.394 20.7327 125.609 21.254C125.836 21.764 125.949 22.3307 125.949 22.954ZM124.283 22.954C124.283 22.5687 124.221 22.2003 124.096 21.849C123.983 21.4977 123.813 21.1917 123.586 20.931C123.359 20.659 123.076 20.4437 122.736 20.285C122.407 20.1263 122.028 20.047 121.597 20.047C121.166 20.047 120.781 20.1263 120.441 20.285C120.112 20.4437 119.835 20.659 119.608 20.931C119.381 21.1917 119.206 21.4977 119.081 21.849C118.968 22.2003 118.911 22.5687 118.911 22.954C118.911 23.3393 118.968 23.7077 119.081 24.059C119.206 24.4103 119.381 24.722 119.608 24.994C119.835 25.266 120.112 25.4813 120.441 25.64C120.781 25.7987 121.166 25.878 121.597 25.878C122.028 25.878 122.407 25.7987 122.736 25.64C123.076 25.4813 123.359 25.266 123.586 24.994C123.813 24.722 123.983 24.4103 124.096 24.059C124.221 23.7077 124.283 23.3393 124.283 22.954ZM135.475 25.266H135.509L137.736 18.942H139.436L135.526 28.904C135.39 29.244 135.243 29.5443 135.084 29.805C134.925 30.077 134.738 30.3037 134.523 30.485C134.308 30.6777 134.053 30.825 133.758 30.927C133.475 31.029 133.135 31.08 132.738 31.08C132.568 31.08 132.392 31.0687 132.211 31.046C132.041 31.0347 131.865 31.0063 131.684 30.961L131.837 29.55C132.109 29.6407 132.375 29.686 132.636 29.686C133.055 29.686 133.367 29.567 133.571 29.329C133.775 29.1023 133.962 28.7737 134.132 28.343L134.642 27L131.191 18.942H132.976L135.475 25.266ZM149.141 22.954C149.141 23.5773 149.028 24.1497 148.801 24.671C148.586 25.1923 148.28 25.6457 147.883 26.031C147.498 26.405 147.039 26.6997 146.506 26.915C145.974 27.119 145.401 27.221 144.789 27.221C144.177 27.221 143.605 27.119 143.072 26.915C142.54 26.6997 142.081 26.405 141.695 26.031C141.31 25.6457 141.004 25.1923 140.777 24.671C140.562 24.1497 140.454 23.5773 140.454 22.954C140.454 22.3307 140.562 21.764 140.777 21.254C141.004 20.7327 141.31 20.285 141.695 19.911C142.081 19.537 142.54 19.248 143.072 19.044C143.605 18.8287 144.177 18.721 144.789 18.721C145.401 18.721 145.974 18.8287 146.506 19.044C147.039 19.248 147.498 19.537 147.883 19.911C148.28 20.285 148.586 20.7327 148.801 21.254C149.028 21.764 149.141 22.3307 149.141 22.954ZM147.475 22.954C147.475 22.5687 147.413 22.2003 147.288 21.849C147.175 21.4977 147.005 21.1917 146.778 20.931C146.552 20.659 146.268 20.4437 145.928 20.285C145.6 20.1263 145.22 20.047 144.789 20.047C144.359 20.047 143.973 20.1263 143.633 20.285C143.305 20.4437 143.027 20.659 142.8 20.931C142.574 21.1917 142.398 21.4977 142.273 21.849C142.16 22.2003 142.103 22.5687 142.103 22.954C142.103 23.3393 142.16 23.7077 142.273 24.059C142.398 24.4103 142.574 24.722 142.8 24.994C143.027 25.266 143.305 25.4813 143.633 25.64C143.973 25.7987 144.359 25.878 144.789 25.878C145.22 25.878 145.6 25.7987 145.928 25.64C146.268 25.4813 146.552 25.266 146.778 24.994C147.005 24.722 147.175 24.4103 147.288 24.059C147.413 23.7077 147.475 23.3393 147.475 22.954ZM157.035 27C157.013 26.796 156.996 26.5693 156.984 26.32C156.973 26.0593 156.967 25.844 156.967 25.674H156.933C156.729 26.1047 156.384 26.473 155.896 26.779C155.42 27.0737 154.888 27.221 154.298 27.221C153.777 27.221 153.324 27.136 152.938 26.966C152.564 26.796 152.253 26.5637 152.003 26.269C151.765 25.963 151.584 25.6117 151.459 25.215C151.346 24.8183 151.289 24.3933 151.289 23.94V18.942H152.887V23.396C152.887 23.7247 152.91 24.042 152.955 24.348C153.012 24.6427 153.108 24.9033 153.244 25.13C153.38 25.3567 153.567 25.538 153.805 25.674C154.043 25.81 154.349 25.878 154.723 25.878C155.369 25.878 155.891 25.64 156.287 25.164C156.684 24.6767 156.882 24.0307 156.882 23.226V18.942H158.48V25.266C158.48 25.4813 158.486 25.759 158.497 26.099C158.509 26.439 158.526 26.7393 158.548 27H157.035ZM166.097 18.942L167.916 25.096H167.95L169.871 18.942H171.554L173.509 25.096H173.543L175.362 18.942H177.045L174.376 27H172.71L170.721 20.948H170.687L168.715 27H167.049L164.363 18.942H166.097ZM183.665 21.781C183.665 21.1803 183.484 20.7383 183.121 20.455C182.759 20.1603 182.277 20.013 181.676 20.013C181.223 20.013 180.792 20.1037 180.384 20.285C179.988 20.455 179.653 20.676 179.381 20.948L178.531 19.928C178.928 19.554 179.41 19.2593 179.976 19.044C180.554 18.8287 181.172 18.721 181.829 18.721C182.407 18.721 182.906 18.806 183.325 18.976C183.756 19.1347 184.107 19.3557 184.379 19.639C184.651 19.9223 184.855 20.2567 184.991 20.642C185.127 21.0273 185.195 21.441 185.195 21.883V25.402C185.195 25.674 185.201 25.963 185.212 26.269C185.235 26.5637 185.269 26.8073 185.314 27H183.869C183.779 26.6147 183.733 26.2293 183.733 25.844H183.682C183.388 26.2747 183.014 26.609 182.56 26.847C182.118 27.085 181.591 27.204 180.979 27.204C180.662 27.204 180.328 27.1587 179.976 27.068C179.636 26.9887 179.325 26.8527 179.041 26.66C178.758 26.4673 178.52 26.2123 178.327 25.895C178.146 25.5777 178.055 25.1867 178.055 24.722C178.055 24.11 178.22 23.6283 178.548 23.277C178.877 22.9143 179.308 22.6423 179.84 22.461C180.373 22.2683 180.974 22.1437 181.642 22.087C182.311 22.0303 182.985 22.002 183.665 22.002V21.781ZM183.274 23.158C182.878 23.158 182.464 23.175 182.033 23.209C181.614 23.243 181.229 23.311 180.877 23.413C180.537 23.515 180.254 23.668 180.027 23.872C179.801 24.076 179.687 24.348 179.687 24.688C179.687 24.926 179.733 25.1243 179.823 25.283C179.925 25.4417 180.056 25.572 180.214 25.674C180.373 25.776 180.549 25.8497 180.741 25.895C180.934 25.929 181.132 25.946 181.336 25.946C182.084 25.946 182.657 25.725 183.053 25.283C183.461 24.8297 183.665 24.263 183.665 23.583V23.158H183.274ZM189.309 18.942C189.332 19.146 189.349 19.3783 189.36 19.639C189.372 19.8883 189.377 20.098 189.377 20.268H189.428C189.53 20.0527 189.666 19.8543 189.836 19.673C190.018 19.4803 190.222 19.316 190.448 19.18C190.675 19.0327 190.924 18.9193 191.196 18.84C191.468 18.7607 191.752 18.721 192.046 18.721C192.568 18.721 193.015 18.8117 193.389 18.993C193.763 19.163 194.075 19.3953 194.324 19.69C194.574 19.9847 194.755 20.3303 194.868 20.727C194.993 21.1237 195.055 21.5487 195.055 22.002V27H193.457V22.529C193.457 22.2003 193.429 21.8887 193.372 21.594C193.327 21.2993 193.236 21.0387 193.1 20.812C192.964 20.5853 192.777 20.404 192.539 20.268C192.301 20.132 191.995 20.064 191.621 20.064C190.987 20.064 190.465 20.3077 190.057 20.795C189.661 21.271 189.462 21.9113 189.462 22.716V27H187.864V20.676C187.864 20.4607 187.859 20.183 187.847 19.843C187.836 19.503 187.819 19.2027 187.796 18.942H189.309ZM201.703 20.251H199.561V24.45C199.561 24.9373 199.652 25.2887 199.833 25.504C200.014 25.708 200.303 25.81 200.7 25.81C200.847 25.81 201.006 25.793 201.176 25.759C201.346 25.725 201.499 25.674 201.635 25.606L201.686 26.915C201.493 26.983 201.278 27.034 201.04 27.068C200.813 27.1133 200.575 27.136 200.326 27.136C199.567 27.136 198.983 26.9263 198.575 26.507C198.178 26.0877 197.98 25.4587 197.98 24.62V20.251H196.433V18.942H197.98V16.63H199.561V18.942H201.703V20.251ZM211.548 20.251H209.406V24.45C209.406 24.9373 209.496 25.2887 209.678 25.504C209.859 25.708 210.148 25.81 210.545 25.81C210.692 25.81 210.851 25.793 211.021 25.759C211.191 25.725 211.344 25.674 211.48 25.606L211.531 26.915C211.338 26.983 211.123 27.034 210.885 27.068C210.658 27.1133 210.42 27.136 210.171 27.136C209.411 27.136 208.828 26.9263 208.42 26.507C208.023 26.0877 207.825 25.4587 207.825 24.62V20.251H206.278V18.942H207.825V16.63H209.406V18.942H211.548V20.251ZM221.358 22.954C221.358 23.5773 221.245 24.1497 221.018 24.671C220.803 25.1923 220.497 25.6457 220.1 26.031C219.715 26.405 219.256 26.6997 218.723 26.915C218.191 27.119 217.618 27.221 217.006 27.221C216.394 27.221 215.822 27.119 215.289 26.915C214.757 26.6997 214.298 26.405 213.912 26.031C213.527 25.6457 213.221 25.1923 212.994 24.671C212.779 24.1497 212.671 23.5773 212.671 22.954C212.671 22.3307 212.779 21.764 212.994 21.254C213.221 20.7327 213.527 20.285 213.912 19.911C214.298 19.537 214.757 19.248 215.289 19.044C215.822 18.8287 216.394 18.721 217.006 18.721C217.618 18.721 218.191 18.8287 218.723 19.044C219.256 19.248 219.715 19.537 220.1 19.911C220.497 20.285 220.803 20.7327 221.018 21.254C221.245 21.764 221.358 22.3307 221.358 22.954ZM219.692 22.954C219.692 22.5687 219.63 22.2003 219.505 21.849C219.392 21.4977 219.222 21.1917 218.995 20.931C218.769 20.659 218.485 20.4437 218.145 20.285C217.817 20.1263 217.437 20.047 217.006 20.047C216.576 20.047 216.19 20.1263 215.85 20.285C215.522 20.4437 215.244 20.659 215.017 20.931C214.791 21.1917 214.615 21.4977 214.49 21.849C214.377 22.2003 214.32 22.5687 214.32 22.954C214.32 23.3393 214.377 23.7077 214.49 24.059C214.615 24.4103 214.791 24.722 215.017 24.994C215.244 25.266 215.522 25.4813 215.85 25.64C216.19 25.7987 216.576 25.878 217.006 25.878C217.437 25.878 217.817 25.7987 218.145 25.64C218.485 25.4813 218.769 25.266 218.995 24.994C219.222 24.722 219.392 24.4103 219.505 24.059C219.63 23.7077 219.692 23.3393 219.692 22.954ZM229.456 27H227.858V14.148H229.456V27ZM233.855 27H232.257V18.942H233.855V27ZM234.127 16.035C234.127 16.3297 234.02 16.5733 233.804 16.766C233.6 16.9587 233.351 17.055 233.056 17.055C232.762 17.055 232.512 16.9587 232.308 16.766C232.104 16.562 232.002 16.3183 232.002 16.035C232.002 15.7403 232.104 15.4967 232.308 15.304C232.512 15.1 232.762 14.998 233.056 14.998C233.351 14.998 233.6 15.1 233.804 15.304C234.02 15.4967 234.127 15.7403 234.127 16.035ZM240.992 20.982C240.81 20.6873 240.555 20.4493 240.227 20.268C239.898 20.0753 239.53 19.979 239.122 19.979C238.94 19.979 238.759 20.0017 238.578 20.047C238.396 20.081 238.232 20.1433 238.085 20.234C237.949 20.3133 237.835 20.421 237.745 20.557C237.665 20.6817 237.626 20.8403 237.626 21.033C237.626 21.373 237.779 21.628 238.085 21.798C238.391 21.9567 238.85 22.104 239.462 22.24C239.847 22.3307 240.204 22.4383 240.533 22.563C240.861 22.6877 241.145 22.8463 241.383 23.039C241.632 23.2203 241.825 23.4413 241.961 23.702C242.097 23.9627 242.165 24.2687 242.165 24.62C242.165 25.096 242.074 25.4983 241.893 25.827C241.711 26.1557 241.468 26.4277 241.162 26.643C240.867 26.847 240.527 26.9943 240.142 27.085C239.756 27.1757 239.36 27.221 238.952 27.221C238.34 27.221 237.739 27.102 237.15 26.864C236.572 26.626 236.09 26.2633 235.705 25.776L236.844 24.807C237.059 25.1243 237.354 25.3907 237.728 25.606C238.113 25.8213 238.532 25.929 238.986 25.929C239.19 25.929 239.382 25.912 239.564 25.878C239.756 25.8327 239.926 25.7647 240.074 25.674C240.232 25.5833 240.357 25.4643 240.448 25.317C240.538 25.1697 240.584 24.9827 240.584 24.756C240.584 24.382 240.402 24.1043 240.04 23.923C239.688 23.7417 239.167 23.5717 238.476 23.413C238.204 23.345 237.926 23.2657 237.643 23.175C237.371 23.073 237.121 22.937 236.895 22.767C236.668 22.597 236.481 22.3873 236.334 22.138C236.198 21.8773 236.13 21.56 236.13 21.186C236.13 20.7553 236.215 20.387 236.385 20.081C236.566 19.7637 236.798 19.5087 237.082 19.316C237.365 19.112 237.688 18.9647 238.051 18.874C238.413 18.772 238.787 18.721 239.173 18.721C239.751 18.721 240.306 18.8343 240.839 19.061C241.383 19.2877 241.802 19.6163 242.097 20.047L240.992 20.982ZM248.137 20.251H245.995V24.45C245.995 24.9373 246.086 25.2887 246.267 25.504C246.449 25.708 246.738 25.81 247.134 25.81C247.282 25.81 247.44 25.793 247.61 25.759C247.78 25.725 247.933 25.674 248.069 25.606L248.12 26.915C247.928 26.983 247.712 27.034 247.474 27.068C247.248 27.1133 247.01 27.136 246.76 27.136C246.001 27.136 245.417 26.9263 245.009 26.507C244.613 26.0877 244.414 25.4587 244.414 24.62V20.251H242.867V18.942H244.414V16.63H245.995V18.942H248.137V20.251ZM255.687 22.257C255.676 21.9397 255.619 21.645 255.517 21.373C255.426 21.0897 255.285 20.846 255.092 20.642C254.911 20.438 254.678 20.2793 254.395 20.166C254.123 20.0413 253.8 19.979 253.426 19.979C253.086 19.979 252.763 20.0413 252.457 20.166C252.162 20.2793 251.902 20.438 251.675 20.642C251.46 20.846 251.278 21.0897 251.131 21.373C250.995 21.645 250.916 21.9397 250.893 22.257H255.687ZM257.302 22.903C257.302 22.9937 257.302 23.0843 257.302 23.175C257.302 23.2657 257.296 23.3563 257.285 23.447H250.893C250.904 23.787 250.978 24.11 251.114 24.416C251.261 24.7107 251.454 24.9713 251.692 25.198C251.93 25.4133 252.202 25.5833 252.508 25.708C252.825 25.8327 253.16 25.895 253.511 25.895C254.055 25.895 254.525 25.776 254.922 25.538C255.319 25.3 255.63 25.011 255.857 24.671L256.979 25.572C256.548 26.1387 256.038 26.558 255.449 26.83C254.871 27.0907 254.225 27.221 253.511 27.221C252.899 27.221 252.332 27.119 251.811 26.915C251.29 26.711 250.842 26.4277 250.468 26.065C250.094 25.691 249.799 25.2433 249.584 24.722C249.369 24.2007 249.261 23.6227 249.261 22.988C249.261 22.3647 249.363 21.7923 249.567 21.271C249.782 20.7383 250.077 20.285 250.451 19.911C250.825 19.537 251.267 19.248 251.777 19.044C252.287 18.8287 252.837 18.721 253.426 18.721C254.015 18.721 254.548 18.8173 255.024 19.01C255.511 19.2027 255.919 19.4803 256.248 19.843C256.588 20.2057 256.849 20.6477 257.03 21.169C257.211 21.679 257.302 22.257 257.302 22.903ZM260.978 18.942C261.001 19.146 261.018 19.3783 261.029 19.639C261.041 19.8883 261.046 20.098 261.046 20.268H261.097C261.199 20.0527 261.335 19.8543 261.505 19.673C261.687 19.4803 261.891 19.316 262.117 19.18C262.344 19.0327 262.593 18.9193 262.865 18.84C263.137 18.7607 263.421 18.721 263.715 18.721C264.237 18.721 264.684 18.8117 265.058 18.993C265.432 19.163 265.744 19.3953 265.993 19.69C266.243 19.9847 266.424 20.3303 266.537 20.727C266.662 21.1237 266.724 21.5487 266.724 22.002V27H265.126V22.529C265.126 22.2003 265.098 21.8887 265.041 21.594C264.996 21.2993 264.905 21.0387 264.769 20.812C264.633 20.5853 264.446 20.404 264.208 20.268C263.97 20.132 263.664 20.064 263.29 20.064C262.656 20.064 262.134 20.3077 261.726 20.795C261.33 21.271 261.131 21.9113 261.131 22.716V27H259.533V20.676C259.533 20.4607 259.528 20.183 259.516 19.843C259.505 19.503 259.488 19.2027 259.465 18.942H260.978ZM277.622 20.251H275.48V24.45C275.48 24.9373 275.57 25.2887 275.752 25.504C275.933 25.708 276.222 25.81 276.619 25.81C276.766 25.81 276.925 25.793 277.095 25.759C277.265 25.725 277.418 25.674 277.554 25.606L277.605 26.915C277.412 26.983 277.197 27.034 276.959 27.068C276.732 27.1133 276.494 27.136 276.245 27.136C275.485 27.136 274.902 26.9263 274.494 26.507C274.097 26.0877 273.899 25.4587 273.899 24.62V20.251H272.352V18.942H273.899V16.63H275.48V18.942H277.622V20.251ZM287.433 22.954C287.433 23.5773 287.319 24.1497 287.093 24.671C286.877 25.1923 286.571 25.6457 286.175 26.031C285.789 26.405 285.33 26.6997 284.798 26.915C284.265 27.119 283.693 27.221 283.081 27.221C282.469 27.221 281.896 27.119 281.364 26.915C280.831 26.6997 280.372 26.405 279.987 26.031C279.601 25.6457 279.295 25.1923 279.069 24.671C278.853 24.1497 278.746 23.5773 278.746 22.954C278.746 22.3307 278.853 21.764 279.069 21.254C279.295 20.7327 279.601 20.285 279.987 19.911C280.372 19.537 280.831 19.248 281.364 19.044C281.896 18.8287 282.469 18.721 283.081 18.721C283.693 18.721 284.265 18.8287 284.798 19.044C285.33 19.248 285.789 19.537 286.175 19.911C286.571 20.285 286.877 20.7327 287.093 21.254C287.319 21.764 287.433 22.3307 287.433 22.954ZM285.767 22.954C285.767 22.5687 285.704 22.2003 285.58 21.849C285.466 21.4977 285.296 21.1917 285.07 20.931C284.843 20.659 284.56 20.4437 284.22 20.285C283.891 20.1263 283.511 20.047 283.081 20.047C282.65 20.047 282.265 20.1263 281.925 20.285C281.596 20.4437 281.318 20.659 281.092 20.931C280.865 21.1917 280.689 21.4977 280.565 21.849C280.451 22.2003 280.395 22.5687 280.395 22.954C280.395 23.3393 280.451 23.7077 280.565 24.059C280.689 24.4103 280.865 24.722 281.092 24.994C281.318 25.266 281.596 25.4813 281.925 25.64C282.265 25.7987 282.65 25.878 283.081 25.878C283.511 25.878 283.891 25.7987 284.22 25.64C284.56 25.4813 284.843 25.266 285.07 24.994C285.296 24.722 285.466 24.4103 285.58 24.059C285.704 23.7077 285.767 23.3393 285.767 22.954ZM293.388 23.583H291.79V22.767C291.79 22.4723 291.819 22.206 291.875 21.968C291.932 21.73 292.011 21.5147 292.113 21.322C292.227 21.1293 292.357 20.948 292.504 20.778C292.663 20.5967 292.839 20.4153 293.031 20.234L293.66 19.639C293.91 19.4237 294.114 19.1913 294.272 18.942C294.442 18.6813 294.527 18.3527 294.527 17.956C294.527 17.412 294.352 16.9813 294 16.664C293.66 16.3353 293.218 16.171 292.674 16.171C292.108 16.171 291.654 16.3523 291.314 16.715C290.974 17.0777 290.776 17.5197 290.719 18.041L289.087 17.854C289.155 17.3667 289.297 16.9303 289.512 16.545C289.728 16.1483 289.994 15.814 290.311 15.542C290.64 15.27 291.014 15.066 291.433 14.93C291.853 14.7827 292.3 14.709 292.776 14.709C293.252 14.709 293.694 14.777 294.102 14.913C294.522 15.049 294.89 15.253 295.207 15.525C295.525 15.7857 295.774 16.1143 295.955 16.511C296.137 16.8963 296.227 17.344 296.227 17.854C296.227 18.2167 296.188 18.534 296.108 18.806C296.029 19.078 295.916 19.3273 295.768 19.554C295.632 19.7693 295.462 19.9733 295.258 20.166C295.054 20.3587 294.833 20.557 294.595 20.761C294.369 20.9537 294.176 21.1293 294.017 21.288C293.859 21.4353 293.734 21.5883 293.643 21.747C293.553 21.9057 293.485 22.0813 293.439 22.274C293.405 22.4667 293.388 22.7047 293.388 22.988V23.583ZM293.813 25.98C293.813 26.2747 293.706 26.5353 293.49 26.762C293.275 26.9887 293.003 27.102 292.674 27.102C292.357 27.102 292.085 26.9943 291.858 26.779C291.643 26.5523 291.535 26.2917 291.535 25.997C291.535 25.691 291.643 25.4303 291.858 25.215C292.074 24.9883 292.346 24.875 292.674 24.875C293.003 24.875 293.275 24.9827 293.49 25.198C293.706 25.4133 293.813 25.674 293.813 25.98Z" fill="white" fill-opacity="0.23" style="mix-blend-mode:lighten"/>
<path d="M64.641 24.552H64.675L67.497 14.964H69.35L72.155 24.552H72.189L74.841 14.964H76.626L73.09 27H71.339L68.415 17.327H68.381L65.457 27H63.706L60.17 14.964H61.989L64.641 24.552ZM79.8438 20.166C80.0364 19.7693 80.3651 19.4293 80.8298 19.146C81.2944 18.8627 81.8158 18.721 82.3938 18.721C82.9151 18.721 83.3628 18.8117 83.7368 18.993C84.1108 19.163 84.4224 19.3953 84.6718 19.69C84.9211 19.9847 85.1024 20.3303 85.2158 20.727C85.3404 21.1237 85.4028 21.5487 85.4028 22.002V27H83.8048V22.546C83.8048 22.2173 83.7764 21.9057 83.7198 21.611C83.6744 21.3163 83.5838 21.0557 83.4478 20.829C83.3118 20.6023 83.1248 20.421 82.8868 20.285C82.6601 20.149 82.3598 20.081 81.9858 20.081C81.3511 20.081 80.8298 20.3247 80.4218 20.812C80.0138 21.288 79.8098 21.9283 79.8098 22.733V27H78.2118V14.148H79.8098V20.166H79.8438ZM93.1205 21.781C93.1205 21.1803 92.9392 20.7383 92.5765 20.455C92.2138 20.1603 91.7322 20.013 91.1315 20.013C90.6782 20.013 90.2475 20.1037 89.8395 20.285C89.4428 20.455 89.1085 20.676 88.8365 20.948L87.9865 19.928C88.3832 19.554 88.8648 19.2593 89.4315 19.044C90.0095 18.8287 90.6272 18.721 91.2845 18.721C91.8625 18.721 92.3612 18.806 92.7805 18.976C93.2112 19.1347 93.5625 19.3557 93.8345 19.639C94.1065 19.9223 94.3105 20.2567 94.4465 20.642C94.5825 21.0273 94.6505 21.441 94.6505 21.883V25.402C94.6505 25.674 94.6562 25.963 94.6675 26.269C94.6902 26.5637 94.7242 26.8073 94.7695 27H93.3245C93.2338 26.6147 93.1885 26.2293 93.1885 25.844H93.1375C92.8428 26.2747 92.4688 26.609 92.0155 26.847C91.5735 27.085 91.0465 27.204 90.4345 27.204C90.1172 27.204 89.7828 27.1587 89.4315 27.068C89.0915 26.9887 88.7798 26.8527 88.4965 26.66C88.2132 26.4673 87.9752 26.2123 87.7825 25.895C87.6012 25.5777 87.5105 25.1867 87.5105 24.722C87.5105 24.11 87.6748 23.6283 88.0035 23.277C88.3322 22.9143 88.7628 22.6423 89.2955 22.461C89.8282 22.2683 90.4288 22.1437 91.0975 22.087C91.7662 22.0303 92.4405 22.002 93.1205 22.002V21.781ZM92.7295 23.158C92.3328 23.158 91.9192 23.175 91.4885 23.209C91.0692 23.243 90.6838 23.311 90.3325 23.413C89.9925 23.515 89.7092 23.668 89.4825 23.872C89.2558 24.076 89.1425 24.348 89.1425 24.688C89.1425 24.926 89.1878 25.1243 89.2785 25.283C89.3805 25.4417 89.5108 25.572 89.6695 25.674C89.8282 25.776 90.0038 25.8497 90.1965 25.895C90.3892 25.929 90.5875 25.946 90.7915 25.946C91.5395 25.946 92.1118 25.725 92.5085 25.283C92.9165 24.8297 93.1205 24.263 93.1205 23.583V23.158H92.7295ZM101.097 20.251H98.9554V24.45C98.9554 24.9373 99.046 25.2887 99.2274 25.504C99.4087 25.708 99.6977 25.81 100.094 25.81C100.242 25.81 100.4 25.793 100.57 25.759C100.74 25.725 100.893 25.674 101.029 25.606L101.08 26.915C100.888 26.983 100.672 27.034 100.434 27.068C100.208 27.1133 99.9697 27.136 99.7204 27.136C98.961 27.136 98.3774 26.9263 97.9694 26.507C97.5727 26.0877 97.3744 25.4587 97.3744 24.62V20.251H95.8274V18.942H97.3744V16.63H98.9554V18.942H101.097V20.251ZM113.424 25.725C113.118 26.2123 112.699 26.5863 112.166 26.847C111.645 27.0963 111.095 27.221 110.517 27.221C109.894 27.221 109.333 27.1133 108.834 26.898C108.335 26.6713 107.91 26.3653 107.559 25.98C107.208 25.5947 106.936 25.1413 106.743 24.62C106.55 24.0987 106.454 23.5433 106.454 22.954C106.454 22.3647 106.55 21.815 106.743 21.305C106.936 20.7837 107.208 20.3303 107.559 19.945C107.922 19.5597 108.352 19.2593 108.851 19.044C109.35 18.8287 109.899 18.721 110.5 18.721C111.157 18.721 111.73 18.8627 112.217 19.146C112.704 19.418 113.09 19.7523 113.373 20.149H113.407V14.148H115.005V27H113.458V25.725H113.424ZM108.12 22.954C108.12 23.328 108.177 23.6907 108.29 24.042C108.403 24.3933 108.573 24.705 108.8 24.977C109.027 25.249 109.304 25.47 109.633 25.64C109.962 25.7987 110.347 25.878 110.789 25.878C111.197 25.878 111.565 25.7987 111.894 25.64C112.234 25.4813 112.523 25.2717 112.761 25.011C112.999 24.739 113.18 24.4273 113.305 24.076C113.441 23.7247 113.509 23.3563 113.509 22.971C113.509 22.5857 113.441 22.2173 113.305 21.866C113.18 21.5147 112.999 21.203 112.761 20.931C112.523 20.659 112.234 20.4437 111.894 20.285C111.565 20.1263 111.197 20.047 110.789 20.047C110.347 20.047 109.962 20.1263 109.633 20.285C109.304 20.4437 109.027 20.659 108.8 20.931C108.573 21.203 108.403 21.5147 108.29 21.866C108.177 22.2173 108.12 22.58 108.12 22.954ZM125.949 22.954C125.949 23.5773 125.836 24.1497 125.609 24.671C125.394 25.1923 125.088 25.6457 124.691 26.031C124.306 26.405 123.847 26.6997 123.314 26.915C122.781 27.119 122.209 27.221 121.597 27.221C120.985 27.221 120.413 27.119 119.88 26.915C119.347 26.6997 118.888 26.405 118.503 26.031C118.118 25.6457 117.812 25.1923 117.585 24.671C117.37 24.1497 117.262 23.5773 117.262 22.954C117.262 22.3307 117.37 21.764 117.585 21.254C117.812 20.7327 118.118 20.285 118.503 19.911C118.888 19.537 119.347 19.248 119.88 19.044C120.413 18.8287 120.985 18.721 121.597 18.721C122.209 18.721 122.781 18.8287 123.314 19.044C123.847 19.248 124.306 19.537 124.691 19.911C125.088 20.285 125.394 20.7327 125.609 21.254C125.836 21.764 125.949 22.3307 125.949 22.954ZM124.283 22.954C124.283 22.5687 124.221 22.2003 124.096 21.849C123.983 21.4977 123.813 21.1917 123.586 20.931C123.359 20.659 123.076 20.4437 122.736 20.285C122.407 20.1263 122.028 20.047 121.597 20.047C121.166 20.047 120.781 20.1263 120.441 20.285C120.112 20.4437 119.835 20.659 119.608 20.931C119.381 21.1917 119.206 21.4977 119.081 21.849C118.968 22.2003 118.911 22.5687 118.911 22.954C118.911 23.3393 118.968 23.7077 119.081 24.059C119.206 24.4103 119.381 24.722 119.608 24.994C119.835 25.266 120.112 25.4813 120.441 25.64C120.781 25.7987 121.166 25.878 121.597 25.878C122.028 25.878 122.407 25.7987 122.736 25.64C123.076 25.4813 123.359 25.266 123.586 24.994C123.813 24.722 123.983 24.4103 124.096 24.059C124.221 23.7077 124.283 23.3393 124.283 22.954ZM135.475 25.266H135.509L137.736 18.942H139.436L135.526 28.904C135.39 29.244 135.243 29.5443 135.084 29.805C134.925 30.077 134.738 30.3037 134.523 30.485C134.308 30.6777 134.053 30.825 133.758 30.927C133.475 31.029 133.135 31.08 132.738 31.08C132.568 31.08 132.392 31.0687 132.211 31.046C132.041 31.0347 131.865 31.0063 131.684 30.961L131.837 29.55C132.109 29.6407 132.375 29.686 132.636 29.686C133.055 29.686 133.367 29.567 133.571 29.329C133.775 29.1023 133.962 28.7737 134.132 28.343L134.642 27L131.191 18.942H132.976L135.475 25.266ZM149.141 22.954C149.141 23.5773 149.028 24.1497 148.801 24.671C148.586 25.1923 148.28 25.6457 147.883 26.031C147.498 26.405 147.039 26.6997 146.506 26.915C145.974 27.119 145.401 27.221 144.789 27.221C144.177 27.221 143.605 27.119 143.072 26.915C142.54 26.6997 142.081 26.405 141.695 26.031C141.31 25.6457 141.004 25.1923 140.777 24.671C140.562 24.1497 140.454 23.5773 140.454 22.954C140.454 22.3307 140.562 21.764 140.777 21.254C141.004 20.7327 141.31 20.285 141.695 19.911C142.081 19.537 142.54 19.248 143.072 19.044C143.605 18.8287 144.177 18.721 144.789 18.721C145.401 18.721 145.974 18.8287 146.506 19.044C147.039 19.248 147.498 19.537 147.883 19.911C148.28 20.285 148.586 20.7327 148.801 21.254C149.028 21.764 149.141 22.3307 149.141 22.954ZM147.475 22.954C147.475 22.5687 147.413 22.2003 147.288 21.849C147.175 21.4977 147.005 21.1917 146.778 20.931C146.552 20.659 146.268 20.4437 145.928 20.285C145.6 20.1263 145.22 20.047 144.789 20.047C144.359 20.047 143.973 20.1263 143.633 20.285C143.305 20.4437 143.027 20.659 142.8 20.931C142.574 21.1917 142.398 21.4977 142.273 21.849C142.16 22.2003 142.103 22.5687 142.103 22.954C142.103 23.3393 142.16 23.7077 142.273 24.059C142.398 24.4103 142.574 24.722 142.8 24.994C143.027 25.266 143.305 25.4813 143.633 25.64C143.973 25.7987 144.359 25.878 144.789 25.878C145.22 25.878 145.6 25.7987 145.928 25.64C146.268 25.4813 146.552 25.266 146.778 24.994C147.005 24.722 147.175 24.4103 147.288 24.059C147.413 23.7077 147.475 23.3393 147.475 22.954ZM157.035 27C157.013 26.796 156.996 26.5693 156.984 26.32C156.973 26.0593 156.967 25.844 156.967 25.674H156.933C156.729 26.1047 156.384 26.473 155.896 26.779C155.42 27.0737 154.888 27.221 154.298 27.221C153.777 27.221 153.324 27.136 152.938 26.966C152.564 26.796 152.253 26.5637 152.003 26.269C151.765 25.963 151.584 25.6117 151.459 25.215C151.346 24.8183 151.289 24.3933 151.289 23.94V18.942H152.887V23.396C152.887 23.7247 152.91 24.042 152.955 24.348C153.012 24.6427 153.108 24.9033 153.244 25.13C153.38 25.3567 153.567 25.538 153.805 25.674C154.043 25.81 154.349 25.878 154.723 25.878C155.369 25.878 155.891 25.64 156.287 25.164C156.684 24.6767 156.882 24.0307 156.882 23.226V18.942H158.48V25.266C158.48 25.4813 158.486 25.759 158.497 26.099C158.509 26.439 158.526 26.7393 158.548 27H157.035ZM166.097 18.942L167.916 25.096H167.95L169.871 18.942H171.554L173.509 25.096H173.543L175.362 18.942H177.045L174.376 27H172.71L170.721 20.948H170.687L168.715 27H167.049L164.363 18.942H166.097ZM183.665 21.781C183.665 21.1803 183.484 20.7383 183.121 20.455C182.759 20.1603 182.277 20.013 181.676 20.013C181.223 20.013 180.792 20.1037 180.384 20.285C179.988 20.455 179.653 20.676 179.381 20.948L178.531 19.928C178.928 19.554 179.41 19.2593 179.976 19.044C180.554 18.8287 181.172 18.721 181.829 18.721C182.407 18.721 182.906 18.806 183.325 18.976C183.756 19.1347 184.107 19.3557 184.379 19.639C184.651 19.9223 184.855 20.2567 184.991 20.642C185.127 21.0273 185.195 21.441 185.195 21.883V25.402C185.195 25.674 185.201 25.963 185.212 26.269C185.235 26.5637 185.269 26.8073 185.314 27H183.869C183.779 26.6147 183.733 26.2293 183.733 25.844H183.682C183.388 26.2747 183.014 26.609 182.56 26.847C182.118 27.085 181.591 27.204 180.979 27.204C180.662 27.204 180.328 27.1587 179.976 27.068C179.636 26.9887 179.325 26.8527 179.041 26.66C178.758 26.4673 178.52 26.2123 178.327 25.895C178.146 25.5777 178.055 25.1867 178.055 24.722C178.055 24.11 178.22 23.6283 178.548 23.277C178.877 22.9143 179.308 22.6423 179.84 22.461C180.373 22.2683 180.974 22.1437 181.642 22.087C182.311 22.0303 182.985 22.002 183.665 22.002V21.781ZM183.274 23.158C182.878 23.158 182.464 23.175 182.033 23.209C181.614 23.243 181.229 23.311 180.877 23.413C180.537 23.515 180.254 23.668 180.027 23.872C179.801 24.076 179.687 24.348 179.687 24.688C179.687 24.926 179.733 25.1243 179.823 25.283C179.925 25.4417 180.056 25.572 180.214 25.674C180.373 25.776 180.549 25.8497 180.741 25.895C180.934 25.929 181.132 25.946 181.336 25.946C182.084 25.946 182.657 25.725 183.053 25.283C183.461 24.8297 183.665 24.263 183.665 23.583V23.158H183.274ZM189.309 18.942C189.332 19.146 189.349 19.3783 189.36 19.639C189.372 19.8883 189.377 20.098 189.377 20.268H189.428C189.53 20.0527 189.666 19.8543 189.836 19.673C190.018 19.4803 190.222 19.316 190.448 19.18C190.675 19.0327 190.924 18.9193 191.196 18.84C191.468 18.7607 191.752 18.721 192.046 18.721C192.568 18.721 193.015 18.8117 193.389 18.993C193.763 19.163 194.075 19.3953 194.324 19.69C194.574 19.9847 194.755 20.3303 194.868 20.727C194.993 21.1237 195.055 21.5487 195.055 22.002V27H193.457V22.529C193.457 22.2003 193.429 21.8887 193.372 21.594C193.327 21.2993 193.236 21.0387 193.1 20.812C192.964 20.5853 192.777 20.404 192.539 20.268C192.301 20.132 191.995 20.064 191.621 20.064C190.987 20.064 190.465 20.3077 190.057 20.795C189.661 21.271 189.462 21.9113 189.462 22.716V27H187.864V20.676C187.864 20.4607 187.859 20.183 187.847 19.843C187.836 19.503 187.819 19.2027 187.796 18.942H189.309ZM201.703 20.251H199.561V24.45C199.561 24.9373 199.652 25.2887 199.833 25.504C200.014 25.708 200.303 25.81 200.7 25.81C200.847 25.81 201.006 25.793 201.176 25.759C201.346 25.725 201.499 25.674 201.635 25.606L201.686 26.915C201.493 26.983 201.278 27.034 201.04 27.068C200.813 27.1133 200.575 27.136 200.326 27.136C199.567 27.136 198.983 26.9263 198.575 26.507C198.178 26.0877 197.98 25.4587 197.98 24.62V20.251H196.433V18.942H197.98V16.63H199.561V18.942H201.703V20.251ZM211.548 20.251H209.406V24.45C209.406 24.9373 209.496 25.2887 209.678 25.504C209.859 25.708 210.148 25.81 210.545 25.81C210.692 25.81 210.851 25.793 211.021 25.759C211.191 25.725 211.344 25.674 211.48 25.606L211.531 26.915C211.338 26.983 211.123 27.034 210.885 27.068C210.658 27.1133 210.42 27.136 210.171 27.136C209.411 27.136 208.828 26.9263 208.42 26.507C208.023 26.0877 207.825 25.4587 207.825 24.62V20.251H206.278V18.942H207.825V16.63H209.406V18.942H211.548V20.251ZM221.358 22.954C221.358 23.5773 221.245 24.1497 221.018 24.671C220.803 25.1923 220.497 25.6457 220.1 26.031C219.715 26.405 219.256 26.6997 218.723 26.915C218.191 27.119 217.618 27.221 217.006 27.221C216.394 27.221 215.822 27.119 215.289 26.915C214.757 26.6997 214.298 26.405 213.912 26.031C213.527 25.6457 213.221 25.1923 212.994 24.671C212.779 24.1497 212.671 23.5773 212.671 22.954C212.671 22.3307 212.779 21.764 212.994 21.254C213.221 20.7327 213.527 20.285 213.912 19.911C214.298 19.537 214.757 19.248 215.289 19.044C215.822 18.8287 216.394 18.721 217.006 18.721C217.618 18.721 218.191 18.8287 218.723 19.044C219.256 19.248 219.715 19.537 220.1 19.911C220.497 20.285 220.803 20.7327 221.018 21.254C221.245 21.764 221.358 22.3307 221.358 22.954ZM219.692 22.954C219.692 22.5687 219.63 22.2003 219.505 21.849C219.392 21.4977 219.222 21.1917 218.995 20.931C218.769 20.659 218.485 20.4437 218.145 20.285C217.817 20.1263 217.437 20.047 217.006 20.047C216.576 20.047 216.19 20.1263 215.85 20.285C215.522 20.4437 215.244 20.659 215.017 20.931C214.791 21.1917 214.615 21.4977 214.49 21.849C214.377 22.2003 214.32 22.5687 214.32 22.954C214.32 23.3393 214.377 23.7077 214.49 24.059C214.615 24.4103 214.791 24.722 215.017 24.994C215.244 25.266 215.522 25.4813 215.85 25.64C216.19 25.7987 216.576 25.878 217.006 25.878C217.437 25.878 217.817 25.7987 218.145 25.64C218.485 25.4813 218.769 25.266 218.995 24.994C219.222 24.722 219.392 24.4103 219.505 24.059C219.63 23.7077 219.692 23.3393 219.692 22.954ZM229.456 27H227.858V14.148H229.456V27ZM233.855 27H232.257V18.942H233.855V27ZM234.127 16.035C234.127 16.3297 234.02 16.5733 233.804 16.766C233.6 16.9587 233.351 17.055 233.056 17.055C232.762 17.055 232.512 16.9587 232.308 16.766C232.104 16.562 232.002 16.3183 232.002 16.035C232.002 15.7403 232.104 15.4967 232.308 15.304C232.512 15.1 232.762 14.998 233.056 14.998C233.351 14.998 233.6 15.1 233.804 15.304C234.02 15.4967 234.127 15.7403 234.127 16.035ZM240.992 20.982C240.81 20.6873 240.555 20.4493 240.227 20.268C239.898 20.0753 239.53 19.979 239.122 19.979C238.94 19.979 238.759 20.0017 238.578 20.047C238.396 20.081 238.232 20.1433 238.085 20.234C237.949 20.3133 237.835 20.421 237.745 20.557C237.665 20.6817 237.626 20.8403 237.626 21.033C237.626 21.373 237.779 21.628 238.085 21.798C238.391 21.9567 238.85 22.104 239.462 22.24C239.847 22.3307 240.204 22.4383 240.533 22.563C240.861 22.6877 241.145 22.8463 241.383 23.039C241.632 23.2203 241.825 23.4413 241.961 23.702C242.097 23.9627 242.165 24.2687 242.165 24.62C242.165 25.096 242.074 25.4983 241.893 25.827C241.711 26.1557 241.468 26.4277 241.162 26.643C240.867 26.847 240.527 26.9943 240.142 27.085C239.756 27.1757 239.36 27.221 238.952 27.221C238.34 27.221 237.739 27.102 237.15 26.864C236.572 26.626 236.09 26.2633 235.705 25.776L236.844 24.807C237.059 25.1243 237.354 25.3907 237.728 25.606C238.113 25.8213 238.532 25.929 238.986 25.929C239.19 25.929 239.382 25.912 239.564 25.878C239.756 25.8327 239.926 25.7647 240.074 25.674C240.232 25.5833 240.357 25.4643 240.448 25.317C240.538 25.1697 240.584 24.9827 240.584 24.756C240.584 24.382 240.402 24.1043 240.04 23.923C239.688 23.7417 239.167 23.5717 238.476 23.413C238.204 23.345 237.926 23.2657 237.643 23.175C237.371 23.073 237.121 22.937 236.895 22.767C236.668 22.597 236.481 22.3873 236.334 22.138C236.198 21.8773 236.13 21.56 236.13 21.186C236.13 20.7553 236.215 20.387 236.385 20.081C236.566 19.7637 236.798 19.5087 237.082 19.316C237.365 19.112 237.688 18.9647 238.051 18.874C238.413 18.772 238.787 18.721 239.173 18.721C239.751 18.721 240.306 18.8343 240.839 19.061C241.383 19.2877 241.802 19.6163 242.097 20.047L240.992 20.982ZM248.137 20.251H245.995V24.45C245.995 24.9373 246.086 25.2887 246.267 25.504C246.449 25.708 246.738 25.81 247.134 25.81C247.282 25.81 247.44 25.793 247.61 25.759C247.78 25.725 247.933 25.674 248.069 25.606L248.12 26.915C247.928 26.983 247.712 27.034 247.474 27.068C247.248 27.1133 247.01 27.136 246.76 27.136C246.001 27.136 245.417 26.9263 245.009 26.507C244.613 26.0877 244.414 25.4587 244.414 24.62V20.251H242.867V18.942H244.414V16.63H245.995V18.942H248.137V20.251ZM255.687 22.257C255.676 21.9397 255.619 21.645 255.517 21.373C255.426 21.0897 255.285 20.846 255.092 20.642C254.911 20.438 254.678 20.2793 254.395 20.166C254.123 20.0413 253.8 19.979 253.426 19.979C253.086 19.979 252.763 20.0413 252.457 20.166C252.162 20.2793 251.902 20.438 251.675 20.642C251.46 20.846 251.278 21.0897 251.131 21.373C250.995 21.645 250.916 21.9397 250.893 22.257H255.687ZM257.302 22.903C257.302 22.9937 257.302 23.0843 257.302 23.175C257.302 23.2657 257.296 23.3563 257.285 23.447H250.893C250.904 23.787 250.978 24.11 251.114 24.416C251.261 24.7107 251.454 24.9713 251.692 25.198C251.93 25.4133 252.202 25.5833 252.508 25.708C252.825 25.8327 253.16 25.895 253.511 25.895C254.055 25.895 254.525 25.776 254.922 25.538C255.319 25.3 255.63 25.011 255.857 24.671L256.979 25.572C256.548 26.1387 256.038 26.558 255.449 26.83C254.871 27.0907 254.225 27.221 253.511 27.221C252.899 27.221 252.332 27.119 251.811 26.915C251.29 26.711 250.842 26.4277 250.468 26.065C250.094 25.691 249.799 25.2433 249.584 24.722C249.369 24.2007 249.261 23.6227 249.261 22.988C249.261 22.3647 249.363 21.7923 249.567 21.271C249.782 20.7383 250.077 20.285 250.451 19.911C250.825 19.537 251.267 19.248 251.777 19.044C252.287 18.8287 252.837 18.721 253.426 18.721C254.015 18.721 254.548 18.8173 255.024 19.01C255.511 19.2027 255.919 19.4803 256.248 19.843C256.588 20.2057 256.849 20.6477 257.03 21.169C257.211 21.679 257.302 22.257 257.302 22.903ZM260.978 18.942C261.001 19.146 261.018 19.3783 261.029 19.639C261.041 19.8883 261.046 20.098 261.046 20.268H261.097C261.199 20.0527 261.335 19.8543 261.505 19.673C261.687 19.4803 261.891 19.316 262.117 19.18C262.344 19.0327 262.593 18.9193 262.865 18.84C263.137 18.7607 263.421 18.721 263.715 18.721C264.237 18.721 264.684 18.8117 265.058 18.993C265.432 19.163 265.744 19.3953 265.993 19.69C266.243 19.9847 266.424 20.3303 266.537 20.727C266.662 21.1237 266.724 21.5487 266.724 22.002V27H265.126V22.529C265.126 22.2003 265.098 21.8887 265.041 21.594C264.996 21.2993 264.905 21.0387 264.769 20.812C264.633 20.5853 264.446 20.404 264.208 20.268C263.97 20.132 263.664 20.064 263.29 20.064C262.656 20.064 262.134 20.3077 261.726 20.795C261.33 21.271 261.131 21.9113 261.131 22.716V27H259.533V20.676C259.533 20.4607 259.528 20.183 259.516 19.843C259.505 19.503 259.488 19.2027 259.465 18.942H260.978ZM277.622 20.251H275.48V24.45C275.48 24.9373 275.57 25.2887 275.752 25.504C275.933 25.708 276.222 25.81 276.619 25.81C276.766 25.81 276.925 25.793 277.095 25.759C277.265 25.725 277.418 25.674 277.554 25.606L277.605 26.915C277.412 26.983 277.197 27.034 276.959 27.068C276.732 27.1133 276.494 27.136 276.245 27.136C275.485 27.136 274.902 26.9263 274.494 26.507C274.097 26.0877 273.899 25.4587 273.899 24.62V20.251H272.352V18.942H273.899V16.63H275.48V18.942H277.622V20.251ZM287.433 22.954C287.433 23.5773 287.319 24.1497 287.093 24.671C286.877 25.1923 286.571 25.6457 286.175 26.031C285.789 26.405 285.33 26.6997 284.798 26.915C284.265 27.119 283.693 27.221 283.081 27.221C282.469 27.221 281.896 27.119 281.364 26.915C280.831 26.6997 280.372 26.405 279.987 26.031C279.601 25.6457 279.295 25.1923 279.069 24.671C278.853 24.1497 278.746 23.5773 278.746 22.954C278.746 22.3307 278.853 21.764 279.069 21.254C279.295 20.7327 279.601 20.285 279.987 19.911C280.372 19.537 280.831 19.248 281.364 19.044C281.896 18.8287 282.469 18.721 283.081 18.721C283.693 18.721 284.265 18.8287 284.798 19.044C285.33 19.248 285.789 19.537 286.175 19.911C286.571 20.285 286.877 20.7327 287.093 21.254C287.319 21.764 287.433 22.3307 287.433 22.954ZM285.767 22.954C285.767 22.5687 285.704 22.2003 285.58 21.849C285.466 21.4977 285.296 21.1917 285.07 20.931C284.843 20.659 284.56 20.4437 284.22 20.285C283.891 20.1263 283.511 20.047 283.081 20.047C282.65 20.047 282.265 20.1263 281.925 20.285C281.596 20.4437 281.318 20.659 281.092 20.931C280.865 21.1917 280.689 21.4977 280.565 21.849C280.451 22.2003 280.395 22.5687 280.395 22.954C280.395 23.3393 280.451 23.7077 280.565 24.059C280.689 24.4103 280.865 24.722 281.092 24.994C281.318 25.266 281.596 25.4813 281.925 25.64C282.265 25.7987 282.65 25.878 283.081 25.878C283.511 25.878 283.891 25.7987 284.22 25.64C284.56 25.4813 284.843 25.266 285.07 24.994C285.296 24.722 285.466 24.4103 285.58 24.059C285.704 23.7077 285.767 23.3393 285.767 22.954ZM293.388 23.583H291.79V22.767C291.79 22.4723 291.819 22.206 291.875 21.968C291.932 21.73 292.011 21.5147 292.113 21.322C292.227 21.1293 292.357 20.948 292.504 20.778C292.663 20.5967 292.839 20.4153 293.031 20.234L293.66 19.639C293.91 19.4237 294.114 19.1913 294.272 18.942C294.442 18.6813 294.527 18.3527 294.527 17.956C294.527 17.412 294.352 16.9813 294 16.664C293.66 16.3353 293.218 16.171 292.674 16.171C292.108 16.171 291.654 16.3523 291.314 16.715C290.974 17.0777 290.776 17.5197 290.719 18.041L289.087 17.854C289.155 17.3667 289.297 16.9303 289.512 16.545C289.728 16.1483 289.994 15.814 290.311 15.542C290.64 15.27 291.014 15.066 291.433 14.93C291.853 14.7827 292.3 14.709 292.776 14.709C293.252 14.709 293.694 14.777 294.102 14.913C294.522 15.049 294.89 15.253 295.207 15.525C295.525 15.7857 295.774 16.1143 295.955 16.511C296.137 16.8963 296.227 17.344 296.227 17.854C296.227 18.2167 296.188 18.534 296.108 18.806C296.029 19.078 295.916 19.3273 295.768 19.554C295.632 19.7693 295.462 19.9733 295.258 20.166C295.054 20.3587 294.833 20.557 294.595 20.761C294.369 20.9537 294.176 21.1293 294.017 21.288C293.859 21.4353 293.734 21.5883 293.643 21.747C293.553 21.9057 293.485 22.0813 293.439 22.274C293.405 22.4667 293.388 22.7047 293.388 22.988V23.583ZM293.813 25.98C293.813 26.2747 293.706 26.5353 293.49 26.762C293.275 26.9887 293.003 27.102 292.674 27.102C292.357 27.102 292.085 26.9943 291.858 26.779C291.643 26.5523 291.535 26.2917 291.535 25.997C291.535 25.691 291.643 25.4303 291.858 25.215C292.074 24.9883 292.346 24.875 292.674 24.875C293.003 24.875 293.275 24.9827 293.49 25.198C293.706 25.4133 293.813 25.674 293.813 25.98Z" fill="#545454" style="mix-blend-mode:color-dodge"/>
<path d="M396.683 21.2764V19.6328C396.683 19.417 396.761 19.2344 396.916 19.085C397.07 18.9355 397.253 18.8608 397.463 18.8608C397.685 18.8608 397.873 18.9355 398.028 19.085C398.183 19.2344 398.26 19.417 398.26 19.6328V21.2183C398.26 22.159 398.457 22.9836 398.85 23.6919C399.248 24.3947 399.804 24.9398 400.518 25.3271C401.232 25.7145 402.059 25.9082 403 25.9082C403.946 25.9082 404.774 25.7145 405.482 25.3271C406.19 24.9398 406.744 24.3947 407.142 23.6919C407.541 22.9836 407.74 22.159 407.74 21.2183V19.6328C407.74 19.417 407.817 19.2344 407.972 19.085C408.127 18.9355 408.312 18.8608 408.528 18.8608C408.744 18.8608 408.927 18.9355 409.076 19.085C409.231 19.2344 409.309 19.417 409.309 19.6328V21.2764C409.309 22.4163 409.073 23.4235 408.603 24.2979C408.133 25.1722 407.48 25.8722 406.644 26.3979C405.814 26.9237 404.854 27.2391 403.764 27.3442V29.0459H406.81C407.026 29.0459 407.211 29.1206 407.366 29.27C407.521 29.425 407.599 29.6104 407.599 29.8262C407.599 30.0365 407.521 30.2163 407.366 30.3657C407.211 30.5207 407.026 30.5981 406.81 30.5981H399.19C398.974 30.5981 398.789 30.5207 398.634 30.3657C398.479 30.2163 398.401 30.0365 398.401 29.8262C398.401 29.6104 398.479 29.425 398.634 29.27C398.789 29.1206 398.974 29.0459 399.19 29.0459H402.236V27.3442C401.146 27.2391 400.183 26.9237 399.348 26.3979C398.512 25.8722 397.859 25.1722 397.389 24.2979C396.918 23.4235 396.683 22.4163 396.683 21.2764ZM403 24.1899C402.441 24.1899 401.94 24.0599 401.498 23.7998C401.06 23.5342 400.715 23.1689 400.46 22.7041C400.205 22.2393 400.078 21.6997 400.078 21.0854V15.499C400.078 14.8848 400.205 14.3452 400.46 13.8804C400.715 13.4155 401.06 13.0531 401.498 12.793C401.94 12.5273 402.441 12.3945 403 12.3945C403.559 12.3945 404.057 12.5273 404.494 12.793C404.937 13.0531 405.283 13.4155 405.532 13.8804C405.786 14.3452 405.914 14.8848 405.914 15.499V21.0854C405.914 21.6997 405.786 22.2393 405.532 22.7041C405.283 23.1689 404.937 23.5342 404.494 23.7998C404.057 24.0599 403.559 24.1899 403 24.1899Z" fill="white" fill-opacity="0.23" style="mix-blend-mode:lighten"/>
<path d="M396.683 21.2764V19.6328C396.683 19.417 396.761 19.2344 396.916 19.085C397.07 18.9355 397.253 18.8608 397.463 18.8608C397.685 18.8608 397.873 18.9355 398.028 19.085C398.183 19.2344 398.26 19.417 398.26 19.6328V21.2183C398.26 22.159 398.457 22.9836 398.85 23.6919C399.248 24.3947 399.804 24.9398 400.518 25.3271C401.232 25.7145 402.059 25.9082 403 25.9082C403.946 25.9082 404.774 25.7145 405.482 25.3271C406.19 24.9398 406.744 24.3947 407.142 23.6919C407.541 22.9836 407.74 22.159 407.74 21.2183V19.6328C407.74 19.417 407.817 19.2344 407.972 19.085C408.127 18.9355 408.312 18.8608 408.528 18.8608C408.744 18.8608 408.927 18.9355 409.076 19.085C409.231 19.2344 409.309 19.417 409.309 19.6328V21.2764C409.309 22.4163 409.073 23.4235 408.603 24.2979C408.133 25.1722 407.48 25.8722 406.644 26.3979C405.814 26.9237 404.854 27.2391 403.764 27.3442V29.0459H406.81C407.026 29.0459 407.211 29.1206 407.366 29.27C407.521 29.425 407.599 29.6104 407.599 29.8262C407.599 30.0365 407.521 30.2163 407.366 30.3657C407.211 30.5207 407.026 30.5981 406.81 30.5981H399.19C398.974 30.5981 398.789 30.5207 398.634 30.3657C398.479 30.2163 398.401 30.0365 398.401 29.8262C398.401 29.6104 398.479 29.425 398.634 29.27C398.789 29.1206 398.974 29.0459 399.19 29.0459H402.236V27.3442C401.146 27.2391 400.183 26.9237 399.348 26.3979C398.512 25.8722 397.859 25.1722 397.389 24.2979C396.918 23.4235 396.683 22.4163 396.683 21.2764ZM403 24.1899C402.441 24.1899 401.94 24.0599 401.498 23.7998C401.06 23.5342 400.715 23.1689 400.46 22.7041C400.205 22.2393 400.078 21.6997 400.078 21.0854V15.499C400.078 14.8848 400.205 14.3452 400.46 13.8804C400.715 13.4155 401.06 13.0531 401.498 12.793C401.94 12.5273 402.441 12.3945 403 12.3945C403.559 12.3945 404.057 12.5273 404.494 12.793C404.937 13.0531 405.283 13.4155 405.532 13.8804C405.786 14.3452 405.914 14.8848 405.914 15.499V21.0854C405.914 21.6997 405.786 22.2393 405.532 22.7041C405.283 23.1689 404.937 23.5342 404.494 23.7998C404.057 24.0599 403.559 24.1899 403 24.1899Z" fill="#545454" style="mix-blend-mode:color-dodge"/>
</g>
<defs>
<filter id="filter0_iiii_265_2360" x="0" y="-0.5" width="426" height="46" filterUnits="userSpaceOnUse" color-interpolation-filters="sRGB">
<feFlood flood-opacity="0" result="BackgroundImageFix"/>
<feBlend mode="normal" in="SourceGraphic" in2="BackgroundImageFix" result="shape"/>
<feColorMatrix in="SourceAlpha" type="matrix" values="0 0 0 0 0 0 0 0 0 0 0 0 0 0 0 0 0 0 127 0" result="hardAlpha"/>
<feOffset dx="1" dy="1.5"/>
<feGaussianBlur stdDeviation="2"/>
<feComposite in2="hardAlpha" operator="arithmetic" k2="-1" k3="1"/>
<feColorMatrix type="matrix" values="0 0 0 0 0 0 0 0 0 0 0 0 0 0 0 0 0 0 0.1 0"/>
<feBlend mode="normal" in2="shape" result="effect1_innerShadow_265_2360"/>
<feColorMatrix in="SourceAlpha" type="matrix" values="0 0 0 0 0 0 0 0 0 0 0 0 0 0 0 0 0 0 127 0" result="hardAlpha"/>
<feOffset dx="1" dy="1.5"/>
<feGaussianBlur stdDeviation="2"/>
<feComposite in2="hardAlpha" operator="arithmetic" k2="-1" k3="1"/>
<feColorMatrix type="matrix" values="0 0 0 0 0 0 0 0 0 0 0 0 0 0 0 0 0 0 0.08 0"/>
<feBlend mode="overlay" in2="effect1_innerShadow_265_2360" result="effect2_innerShadow_265_2360"/>
<feColorMatrix in="SourceAlpha" type="matrix" values="0 0 0 0 0 0 0 0 0 0 0 0 0 0 0 0 0 0 127 0" result="hardAlpha"/>
<feOffset dy="-0.5"/>
<feGaussianBlur stdDeviation="0.5"/>
<feComposite in2="hardAlpha" operator="arithmetic" k2="-1" k3="1"/>
<feColorMatrix type="matrix" values="0 0 0 0 1 0 0 0 0 1 0 0 0 0 1 0 0 0 0.25 0"/>
<feBlend mode="normal" in2="effect2_innerShadow_265_2360" result="effect3_innerShadow_265_2360"/>
<feColorMatrix in="SourceAlpha" type="matrix" values="0 0 0 0 0 0 0 0 0 0 0 0 0 0 0 0 0 0 127 0" result="hardAlpha"/>
<feOffset dy="-0.5"/>
<feGaussianBlur stdDeviation="0.5"/>
<feComposite in2="hardAlpha" operator="arithmetic" k2="-1" k3="1"/>
<feColorMatrix type="matrix" values="0 0 0 0 1 0 0 0 0 1 0 0 0 0 1 0 0 0 0.3 0"/>
<feBlend mode="overlay" in2="effect3_innerShadow_265_2360" result="effect4_innerShadow_265_2360"/>
</filter>
</defs>
</svg>
