<svg width="44" height="44" viewBox="0 0 44 44" fill="none" xmlns="http://www.w3.org/2000/svg">
<path fill-rule="evenodd" clip-rule="evenodd" d="M20.9891 17.7834L12.8757 26.8113C11.6607 28.1583 11.7182 30.2211 12.9973 31.5007C14.2798 32.7836 16.3419 32.8377 17.6885 31.6257L26.7131 23.5093C28.0969 23.5195 29.4672 23.013 30.4797 21.9901C32.5722 19.9036 32.5047 16.416 30.2772 14.2046C28.0801 11.9966 24.5936 11.9325 22.5079 14.0189C21.4852 15.0419 20.979 16.3991 20.9891 17.7834ZM25.1775 22.4323L16.4666 30.2684C15.8423 30.8288 14.8838 30.8052 14.2898 30.2077C13.6958 29.6135 13.6723 28.658 14.2326 28.0334C16.4837 25.5317 20.5033 21.0583 22.066 19.3195L25.1775 22.4323ZM27 21.6727L22.8253 17.4964C22.8793 16.6895 23.1999 15.9129 23.8006 15.312C25.1945 13.9176 27.5198 14.0223 28.9947 15.4977C30.4797 16.9731 30.5809 19.3026 29.1972 20.697C28.5829 21.2945 27.8066 21.6187 27 21.6727Z" fill="white"/>
</svg>
