<svg width="54" height="54" viewBox="0 0 54 54" fill="none" xmlns="http://www.w3.org/2000/svg">
<path fill-rule="evenodd" clip-rule="evenodd" d="M16.0384 25.7134C16.0384 30.9625 20.2936 35.2178 25.5427 35.2178C28.0326 35.2178 30.2988 34.2603 31.9933 32.6936C32.0707 32.5054 32.1857 32.3291 32.3386 32.1763C32.4745 32.0404 32.6289 31.9343 32.7938 31.8581C34.1993 30.2012 35.047 28.0563 35.047 25.7134C35.047 20.4643 30.7918 16.2091 25.5427 16.2091C20.2936 16.2091 16.0384 20.4643 16.0384 25.7134ZM33.4993 35.5772C31.3242 37.3339 28.5563 38.3859 25.5427 38.3859C18.5439 38.3859 12.8703 32.7122 12.8703 25.7134C12.8703 18.7147 18.5439 13.041 25.5427 13.041C32.5415 13.041 38.2151 18.7147 38.2151 25.7134C38.2151 28.5566 37.2788 31.181 35.6977 33.2953L40.9149 38.5125C41.5336 39.1311 41.5336 40.1341 40.9149 40.7527C40.2963 41.3713 39.2934 41.3713 38.6748 40.7527L33.4993 35.5772Z" fill="white"/>
<rect width="15.1803" height="15.1803" rx="7.59014" transform="matrix(-1 0 0 1 33.1328 17.9355)" fill="white" fill-opacity="0.7"/>
</svg>
