<?xml version="1.0" encoding="UTF-8" standalone="no"?>
<!DOCTYPE svg PUBLIC "-//W3C//DTD SVG 1.1//EN" "http://www.w3.org/Graphics/SVG/1.1/DTD/svg11.dtd">
<svg xmlns="http://www.w3.org/2000/svg" version="1.1" viewBox="0.00 0.00 148.00 157.00">
<g stroke-width="2.00" fill="none" stroke-linecap="butt">
<path stroke="#a488c0" vector-effect="non-scaling-stroke" d="
  M 86.43 16.15
  Q 86.53 16.41 86.92 16.28
  A 0.55 0.55 0.0 0 0 87.25 15.58
  Q 87.11 15.15 86.46 15.06
  A 0.48 0.48 0.0 0 0 85.93 15.47
  Q 85.84 16.07 86.27 16.05
  Q 86.38 16.05 86.43 16.15"
/>
<path stroke="#776291" vector-effect="non-scaling-stroke" d="
  M 85.64 26.97
  Q 87.97 25.86 88.87 24.53
  Q 89.43 23.70 88.55 23.22
  A 0.92 0.91 25.7 0 0 87.26 23.67
  Q 86.65 25.14 85.10 25.79
  Q 84.78 25.93 84.86 26.26
  L 84.96 26.64
  A 0.49 0.49 0.0 0 0 85.64 26.97"
/>
<path stroke="#a488c0" vector-effect="non-scaling-stroke" d="
  M 24.46 25.17
  Q 24.23 24.93 23.90 25.09
  Q 23.40 25.33 23.86 25.65
  Q 25.10 26.49 26.75 25.80
  Q 26.96 25.72 26.89 25.50
  L 26.78 25.14
  Q 26.67 24.78 26.33 24.93
  L 25.38 25.35
  Q 24.86 25.57 24.46 25.17"
/>
<path stroke="#776291" vector-effect="non-scaling-stroke" d="
  M 19.9471 27.1801
  A 1.32 0.28 131.4 0 0 21.0300 26.3752
  A 1.32 0.28 131.4 0 0 21.6929 25.1999
  A 1.32 0.28 131.4 0 0 20.6100 26.0048
  A 1.32 0.28 131.4 0 0 19.9471 27.1801"
/>
<path stroke="#77628e" vector-effect="non-scaling-stroke" d="
  M 80.54 40.82
  Q 80.61 39.22 79.63 38.10
  A 0.68 0.66 -32.0 0 0 78.85 37.93
  C 77.00 38.78 75.56 36.44 74.50 35.30"
/>
<path stroke="#a488c0" vector-effect="non-scaling-stroke" d="
  M 74.50 35.30
  Q 71.92 31.18 67.86 28.85
  C 66.73 28.20 65.79 27.32 64.75 26.55
  A 0.91 0.89 49.9 0 0 63.83 26.46
  Q 60.73 27.98 60.67 30.13"
/>
<path stroke="#77628e" vector-effect="non-scaling-stroke" d="
  M 60.67 30.13
  L 60.29 31.97"
/>
<path stroke="#a488c0" vector-effect="non-scaling-stroke" d="
  M 60.29 31.97
  L 60.35 31.39
  A 0.20 0.20 0.0 0 0 59.98 31.26
  L 57.78 34.73
  A 1.03 1.01 -78.0 0 1 57.07 35.20
  Q 56.67 35.27 56.31 35.14
  Q 55.80 34.95 55.76 34.41
  Q 55.72 33.97 55.41 33.69
  Q 55.04 33.37 54.57 33.44
  Q 53.16 33.63 52.19 32.55"
/>
<path stroke="#77628e" vector-effect="non-scaling-stroke" d="
  M 52.19 32.55
  L 49.26 28.75
  Q 48.94 28.34 48.43 28.30
  Q 47.09 28.21 46.11 29.22
  Q 45.66 29.69 45.75 30.33
  C 46.01 32.13 46.32 34.44 47.89 35.60
  Q 50.16 37.28 52.13 39.18
  C 53.06 40.07 54.35 40.47 55.53 40.95
  A 1.45 1.45 0.0 0 1 55.54 43.62
  L 51.03 45.52"
/>
<path stroke="#776291" vector-effect="non-scaling-stroke" d="
  M 51.03 45.52
  Q 45.78 42.38 40.68 39.18
  Q 39.74 38.58 39.21 38.76
  Q 38.47 39.02 38.16 40.28"
/>
<path stroke="#cbb0e0" vector-effect="non-scaling-stroke" d="
  M 38.16 40.28
  Q 37.95 41.11 37.38 41.10"
/>
<path stroke="#876fa0" vector-effect="non-scaling-stroke" d="
  M 37.38 41.10
  Q 33.08 43.20 35.80 44.89"
/>
<path stroke="#cbb0e0" vector-effect="non-scaling-stroke" d="
  M 35.80 44.89
  L 37.60 44.96"
/>
<path stroke="#776291" vector-effect="non-scaling-stroke" d="
  M 37.60 44.96
  C 40.35 45.20 44.37 46.04 45.60 48.81
  Q 45.79 49.26 45.36 49.49
  L 38.96 52.96"
/>
<path stroke="#77628e" vector-effect="non-scaling-stroke" d="
  M 38.96 52.96
  Q 38.27 52.25 38.24 51.74
  Q 37.93 45.97 32.24 46.29
  A 1.47 1.42 20.0 0 0 31.28 46.72
  Q 29.74 48.28 27.92 49.49
  Q 27.49 49.77 27.61 50.27
  Q 27.97 51.71 29.81 51.96"
/>
<path stroke="#cbb0e0" vector-effect="non-scaling-stroke" d="
  M 29.81 51.96
  Q 30.97 52.30 30.96 54.19"
/>
<path stroke="#77628e" vector-effect="non-scaling-stroke" d="
  M 30.96 54.19
  Q 31.00 56.79 33.00 57.20
  Q 33.85 57.37 33.49 58.16
  Q 33.35 58.46 33.47 58.76
  Q 33.83 59.73 34.53 58.97
  Q 35.47 57.94 36.67 58.56"
/>
<path stroke="#cbb0e0" vector-effect="non-scaling-stroke" d="
  M 36.67 58.56
  Q 36.29 60.61 35.29 62.43"
/>
<path stroke="#776291" vector-effect="non-scaling-stroke" d="
  M 35.29 62.43
  Q 34.63 62.03 33.93 62.95
  Q 33.62 63.36 33.71 63.86
  C 34.04 65.80 33.95 68.49 35.98 69.56"
/>
<path stroke="#cbb0e0" vector-effect="non-scaling-stroke" d="
  M 35.98 69.56
  Q 35.99 70.00 36.83 71.16"
/>
<path stroke="#776291" vector-effect="non-scaling-stroke" d="
  M 36.83 71.16
  Q 36.71 73.96 34.50 73.70
  Q 32.05 73.41 27.61 74.34"
/>
<path stroke="#876fa0" vector-effect="non-scaling-stroke" d="
  M 27.61 74.34
  Q 26.66 74.38 25.91 74.17
  Q 25.47 74.05 25.38 73.59
  L 24.82 70.75
  Q 24.65 69.90 24.36 70.71
  Q 23.95 71.83 23.92 73.41"
/>
<path stroke="#776291" vector-effect="non-scaling-stroke" d="
  M 23.92 73.41
  Q 23.92 74.99 22.73 75.51
  Q 22.24 75.73 21.94 75.28
  Q 20.82 73.59 22.09 72.09
  Q 22.41 71.72 22.40 71.24
  L 22.38 67.70
  A 1.47 1.42 27.0 0 0 22.10 66.88
  L 21.15 65.59
  Q 20.88 65.22 20.91 64.76
  Q 20.93 64.38 20.68 64.06
  Q 20.37 63.67 20.38 64.17
  C 20.42 66.46 21.00 68.63 20.76 70.91
  Q 20.29 75.46 20.86 80.17
  A 3.75 3.70 23.0 0 0 21.63 82.04
  Q 27.18 89.23 30.88 97.67
  A 1.07 1.05 1.0 0 0 31.41 98.21
  Q 32.23 98.58 33.06 98.12
  Q 33.50 97.88 33.84 98.26
  Q 34.95 99.49 36.18 98.22
  A 0.86 0.86 0.0 0 1 37.65 98.83
  Q 37.64 99.26 37.29 99.57"
/>
<path stroke="#77628e" vector-effect="non-scaling-stroke" d="
  M 37.29 99.57
  Q 35.99 99.39 35.65 100.61
  A 0.90 0.90 0.0 0 0 36.76 101.72
  L 38.19 101.32
  Q 38.74 101.16 38.66 100.59
  Q 38.61 100.15 38.11 99.61"
/>
<path stroke="#776291" vector-effect="non-scaling-stroke" d="
  M 38.11 99.61
  L 38.65 99.22
  A 0.89 0.89 0.0 0 0 38.17 97.60
  Q 37.26 97.56 36.80 96.80
  A 0.63 0.62 57.4 0 1 36.98 95.96
  Q 38.00 95.27 37.30 94.27
  Q 33.68 89.15 30.43 83.30
  Q 30.11 82.72 30.77 82.70
  L 37.59 82.53
  A 1.72 1.71 85.3 0 1 39.33 84.01
  Q 39.91 88.29 41.73 92.80
  Q 42.12 93.78 42.89 94.58
  Q 43.71 95.44 44.28 96.64
  Q 44.74 97.62 45.74 97.28
  Q 46.21 97.12 46.20 96.63
  Q 46.18 91.18 44.73 86.12
  Q 44.58 85.57 44.95 85.13
  L 45.51 84.46
  Q 45.92 83.98 45.88 83.35
  Q 45.71 81.04 47.96 80.10
  Q 51.10 78.79 52.62 76.24
  Q 52.90 75.78 53.43 75.86
  Q 55.17 76.14 56.85 75.59
  Q 57.74 75.29 58.51 75.82
  Q 66.34 81.22 73.90 86.18
  Q 74.84 86.80 75.77 86.91
  Q 76.68 87.02 77.65 87.15
  Q 78.22 87.22 78.61 87.64
  Q 79.42 88.51 80.49 88.09
  A 1.17 1.16 -5.9 0 0 81.22 87.20
  Q 81.35 86.43 81.95 85.97
  A 0.47 0.47 0.0 0 1 82.70 86.39
  Q 82.52 88.21 82.69 90.23
  C 82.84 91.94 82.68 93.13 83.98 94.52"
/>
<path stroke="#77628e" vector-effect="non-scaling-stroke" d="
  M 83.98 94.52
  Q 84.84 96.96 86.50 98.69
  Q 86.86 99.07 87.37 98.93
  Q 88.16 98.72 88.84 97.47"
/>
<path stroke="#776291" vector-effect="non-scaling-stroke" d="
  M 88.84 97.47
  Q 94.12 97.16 99.19 91.84
  A 0.47 0.47 0.0 0 0 99.07 91.10
  Q 97.42 90.21 96.48 88.19"
/>
<path stroke="#a488c0" vector-effect="non-scaling-stroke" d="
  M 96.48 88.19
  Q 97.46 85.43 95.62 84.64
  Q 95.20 84.46 94.92 84.08
  Q 94.53 83.54 93.90 83.26
  Q 92.95 82.84 93.15 83.87
  Q 93.28 84.55 92.86 85.03
  Q 92.17 85.82 93.21 85.78
  Q 95.73 85.67 95.99 88.00"
/>
<path stroke="#776291" vector-effect="non-scaling-stroke" d="
  M 95.99 88.00
  Q 95.06 88.90 93.69 89.07
  Q 93.18 89.14 92.78 88.83
  Q 89.43 86.31 85.25 85.82
  Q 84.73 85.76 84.13 84.98"
/>
<path stroke="#876fa0" vector-effect="non-scaling-stroke" d="
  M 84.13 84.98
  C 85.37 82.48 85.88 79.93 85.19 77.13
  Q 84.68 75.04 85.45 73.17
  A 0.14 0.13 18.8 0 0 85.35 72.98
  L 85.01 72.91
  Q 84.70 72.85 84.66 73.16
  L 83.59 80.70
  Q 83.51 81.28 83.15 81.74
  Q 82.33 82.82 82.95 83.93
  Q 83.16 84.31 82.78 84.50
  Q 82.63 84.58 82.40 84.65"
/>
<path stroke="#776291" vector-effect="non-scaling-stroke" d="
  M 82.40 84.65
  Q 81.62 84.30 81.01 85.01
  Q 79.65 86.59 79.22 86.91
  Q 78.85 87.19 78.44 87.02
  A 0.52 0.52 0.0 0 1 78.21 86.27
  Q 79.17 84.73 80.62 83.72
  Q 81.20 83.32 80.58 82.98
  Q 79.33 82.29 78.27 83.48
  Q 77.66 84.16 77.75 83.25
  Q 77.86 82.01 79.14 82.10
  Q 79.97 82.15 79.63 81.39
  C 78.90 79.74 76.98 79.19 75.67 78.02
  Q 67.91 71.04 59.42 65.28
  Q 58.87 64.91 58.95 64.26
  L 59.06 63.40
  Q 59.14 62.69 58.56 62.27
  Q 56.55 60.81 54.59 59.26
  C 53.45 58.36 53.29 57.09 52.26 56.13
  A 0.15 0.15 0.0 0 0 52.12 56.09
  Q 51.98 56.13 51.86 56.21
  Q 51.01 56.70 51.52 55.87
  Q 53.50 52.62 53.86 50.23
  Q 54.07 48.82 52.11 47.53"
/>
<path stroke="#77628e" vector-effect="non-scaling-stroke" d="
  M 52.11 47.53
  Q 53.23 46.71 54.03 47.46
  Q 55.17 48.54 56.29 49.32
  A 2.22 2.22 0.0 0 0 59.76 47.85
  Q 59.96 46.58 59.47 45.20
  Q 59.27 44.62 58.71 44.86
  Q 58.15 45.10 57.64 44.70
  Q 57.24 44.39 57.70 44.17
  Q 58.24 43.91 58.72 44.22
  A 0.51 0.51 0.0 0 0 59.41 44.10
  Q 59.94 43.39 60.72 43.25
  Q 61.21 43.17 61.63 43.44
  Q 64.07 45.08 66.92 45.57
  A 2.15 2.14 89.2 0 1 68.65 47.26
  C 69.16 49.82 69.90 56.04 72.98 56.83
  Q 75.86 57.58 78.50 57.49
  Q 78.97 57.48 79.36 57.74
  L 82.91 60.18"
/>
<path stroke="#776291" vector-effect="non-scaling-stroke" d="
  M 82.91 60.18
  Q 83.54 60.22 83.50 60.83
  Q 83.48 61.13 83.20 61.53
  Q 81.56 63.87 81.49 66.79
  Q 81.47 67.32 82.00 67.35
  L 83.78 67.46"
/>
<path stroke="#cbb0e0" vector-effect="non-scaling-stroke" d="
  M 83.78 67.46
  Q 85.33 67.23 85.64 68.72"
/>
<path stroke="#a488c0" vector-effect="non-scaling-stroke" d="
  M 85.64 68.72
  Q 85.70 69.00 85.90 69.06"
/>
<path stroke="#776291" vector-effect="non-scaling-stroke" d="
  M 85.90 69.06
  L 88.37 71.90
  Q 88.72 72.29 89.24 72.34
  Q 91.32 72.51 92.94 71.81
  C 94.66 71.06 95.33 69.20 97.31 68.74
  C 99.99 68.12 102.29 66.35 102.99 63.56
  Q 103.34 62.20 104.47 61.35
  Q 105.14 60.84 105.27 60.00
  Q 105.30 59.74 105.44 59.50
  Q 105.77 58.92 106.43 59.05
  Q 107.23 59.20 107.79 58.73
  Q 108.21 58.39 108.10 57.85
  L 107.77 56.31
  A 0.54 0.54 0.0 0 1 108.48 55.69
  Q 109.67 56.09 110.87 55.92
  Q 111.60 55.82 111.33 55.04"
/>
<path stroke="#cbb0e0" vector-effect="non-scaling-stroke" d="
  M 111.33 55.04
  L 111.96 55.30"
/>
<path stroke="#77628e" vector-effect="non-scaling-stroke" d="
  M 111.96 55.30
  Q 111.57 55.69 111.59 56.41
  Q 111.61 57.06 110.97 56.94
  Q 109.89 56.73 109.31 57.53
  Q 108.20 59.03 109.99 58.48
  Q 111.91 57.88 113.36 58.68
  Q 113.95 59.01 114.47 58.58
  L 117.03 56.42
  Q 117.52 56.01 117.41 55.38
  Q 116.85 52.35 116.21 51.27
  Q 113.83 47.16 109.71 49.16
  Q 109.24 49.39 109.06 49.89
  L 108.88 50.38
  Q 108.52 51.35 107.96 50.46
  Q 107.76 50.15 107.45 50.26
  Q 107.01 50.43 106.95 50.91
  Q 106.85 51.84 105.82 51.49"
/>
<path stroke="#776291" vector-effect="non-scaling-stroke" d="
  M 105.82 51.49
  Q 104.30 52.36 103.43 50.97
  Q 103.01 50.30 102.23 50.18
  Q 101.40 50.06 100.86 49.55
  Q 100.25 48.97 100.30 49.81
  Q 100.35 50.48 100.04 50.94"
/>
<path stroke="#876fa0" vector-effect="non-scaling-stroke" d="
  M 100.04 50.94
  Q 99.18 50.93 99.06 50.00
  Q 98.91 48.87 98.02 48.30"
/>
<path stroke="#a488c0" vector-effect="non-scaling-stroke" d="
  M 98.02 48.30
  Q 99.46 44.69 95.26 44.18"
/>
<path stroke="#876fa0" vector-effect="non-scaling-stroke" d="
  M 95.26 44.18
  Q 90.34 43.74 89.12 40.41
  Q 88.51 38.73 88.76 34.11
  Q 88.99 29.88 90.28 26.81
  Q 90.44 26.44 90.26 26.02
  Q 90.01 25.46 89.89 26.06
  Q 89.31 28.88 87.24 30.13
  Q 86.94 30.31 87.08 30.63
  Q 87.17 30.83 87.38 30.90
  Q 87.92 31.09 87.89 31.66
  Q 87.77 33.96 86.82 36.12
  Q 86.62 36.57 86.62 37.06
  L 86.62 40.29
  Q 86.62 41.03 85.95 40.70
  L 84.86 40.16
  Q 84.23 39.85 84.60 39.25
  Q 85.14 38.39 85.01 37.31
  Q 84.94 36.79 85.12 36.29
  Q 86.09 33.53 85.71 30.76
  Q 85.69 30.61 85.54 30.61
  Q 85.42 30.60 85.30 30.55
  Q 85.19 30.50 85.18 30.62
  L 84.00 38.75
  Q 83.93 39.27 83.46 39.48
  L 80.54 40.82"
/>
<path stroke="#6b6371" vector-effect="non-scaling-stroke" d="
  M 95.26 44.18
  Q 93.53 46.25 98.02 48.30"
/>
<path stroke="#3e3c43" vector-effect="non-scaling-stroke" d="
  M 100.04 50.94
  Q 99.40 51.98 98.56 51.77"
/>
<path stroke="#3e3c40" vector-effect="non-scaling-stroke" d="
  M 98.56 51.77
  L 95.65 49.60
  Q 95.16 49.24 94.55 49.16
  Q 93.17 48.99 91.58 48.60
  Q 90.72 48.39 90.32 47.69
  A 0.63 0.61 64.3 0 0 89.55 47.41
  L 86.44 48.62
  A 2.02 2.02 0.0 0 0 85.45 49.43
  Q 83.63 52.25 80.29 52.34
  Q 78.90 52.37 79.60 51.17
  L 79.82 50.78
  Q 80.43 49.72 81.65 49.61
  C 84.68 49.35 86.17 47.76 88.33 45.96
  Q 88.69 45.66 88.64 45.20
  L 88.52 44.22"
/>
<path stroke="#6b6371" vector-effect="non-scaling-stroke" d="
  M 88.52 44.22
  Q 89.82 45.82 91.42 45.92
  Q 92.38 45.98 91.69 45.31
  L 89.75 43.41
  Q 89.24 42.91 88.66 43.34
  Q 88.16 43.72 88.52 44.22"
/>
<path stroke="#3e3c40" vector-effect="non-scaling-stroke" d="
  M 88.52 44.22
  Q 87.67 43.05 87.06 43.22"
/>
<path stroke="#6b6371" vector-effect="non-scaling-stroke" d="
  M 87.06 43.22
  Q 88.17 42.65 88.05 41.50
  Q 88.00 40.99 87.49 40.95
  A 0.51 0.50 -87.4 0 0 86.94 41.46
  L 86.95 42.08
  A 0.55 0.55 0.0 0 1 86.16 42.59
  L 83.92 41.53
  Q 83.34 41.25 83.14 41.86
  Q 82.96 42.41 83.47 42.72"
/>
<path stroke="#3e3c40" vector-effect="non-scaling-stroke" d="
  M 83.47 42.72
  Q 82.33 42.65 82.04 43.32
  Q 81.98 43.47 81.86 43.57
  Q 81.72 43.70 81.53 43.60
  Q 81.23 43.45 81.24 43.11
  Q 81.28 41.61 80.54 40.82"
/>
<path stroke="#5b5660" vector-effect="non-scaling-stroke" d="
  M 52.19 32.55
  Q 52.44 33.67 53.60 34.31
  Q 54.11 34.59 54.07 35.17
  Q 54.02 35.79 54.16 36.38
  Q 54.40 37.37 55.39 37.33
  Q 55.78 37.31 55.86 36.93
  Q 56.11 35.81 57.17 35.88
  Q 57.55 35.90 57.72 36.24
  Q 58.77 38.32 61.48 39.25
  C 62.64 39.65 63.95 39.33 65.15 39.30
  Q 66.47 39.27 67.82 39.65
  Q 70.67 40.44 73.89 40.52
  A 0.05 0.04 78.3 0 0 73.93 40.45
  Q 73.41 39.42 72.37 38.89
  A 2.54 2.48 54.3 0 0 70.90 38.63
  Q 67.55 39.04 65.26 37.18
  A 1.91 1.90 61.9 0 0 63.92 36.77
  Q 62.70 36.86 61.60 37.45
  A 1.20 1.19 -11.3 0 1 59.84 36.28
  L 60.29 31.97"
/>
<path stroke="#5b5660" vector-effect="non-scaling-stroke" d="
  M 83.47 42.72
  L 84.78 43.16
  Q 85.42 43.37 84.91 43.81
  Q 83.26 45.24 81.53 44.84
  A 0.58 0.57 26.5 0 0 80.98 45.02
  Q 80.79 45.22 80.92 45.47
  Q 81.08 45.78 81.39 45.93
  Q 84.38 47.33 85.77 44.20
  Q 86.06 43.53 87.06 43.22"
/>
<path stroke="#2e2f31" vector-effect="non-scaling-stroke" d="
  M 98.56 51.77
  Q 99.21 52.33 99.13 53.03
  A 0.80 0.79 -60.7 0 1 97.72 53.43
  Q 97.23 52.81 96.14 53.00"
/>
<path stroke="#3e3c40" vector-effect="non-scaling-stroke" d="
  M 96.14 53.00
  Q 95.02 51.94 94.21 52.76
  Q 92.95 54.03 92.35 55.51
  Q 92.15 56.00 92.65 56.17
  Q 93.73 56.55 93.33 57.71
  Q 92.90 58.96 92.74 60.17
  A 1.00 0.99 2.9 0 0 93.76 61.29
  Q 95.73 61.24 97.53 61.81"
/>
<path stroke="#2e2f31" vector-effect="non-scaling-stroke" d="
  M 97.53 61.81
  L 98.25 62.52
  A 0.96 0.96 0.0 0 1 97.59 64.16
  L 92.09 64.24"
/>
<path stroke="#77628e" vector-effect="non-scaling-stroke" d="
  M 92.09 64.24
  Q 89.59 62.65 86.43 62.15"
/>
<path stroke="#2e2f31" vector-effect="non-scaling-stroke" d="
  M 86.43 62.15
  Q 85.29 61.96 84.87 60.83
  Q 84.56 59.99 84.23 59.92
  Q 83.74 59.80 82.91 60.18"
/>
<path stroke="#2e2f31" vector-effect="non-scaling-stroke" d="
  M 52.11 47.53
  Q 51.39 46.59 51.03 45.52"
/>
<path stroke="#827e83" vector-effect="non-scaling-stroke" d="
  M 107.03 52.23
  Q 106.21 53.30 105.92 54.32
  Q 105.76 54.86 106.32 54.97
  Q 107.33 55.17 108.10 54.57
  A 0.83 0.81 -47.5 0 1 109.02 54.52
  Q 109.48 54.80 109.85 54.44
  Q 110.23 54.06 110.70 54.31
  Q 111.11 54.52 111.33 55.04"
/>
<path stroke="#5b5663" vector-effect="non-scaling-stroke" d="
  M 85.90 69.06
  Q 86.11 68.49 87.06 68.57
  Q 87.52 68.60 87.64 69.05
  Q 88.05 70.58 89.38 71.89
  Q 89.73 72.23 90.05 71.87
  Q 90.62 71.24 91.54 71.19
  Q 92.15 71.16 92.24 70.55
  Q 92.32 69.96 91.84 69.54
  Q 91.43 69.20 91.14 69.65
  Q 90.70 70.35 89.21 69.78
  A 0.96 0.96 0.0 0 1 88.60 68.71
  Q 88.73 67.91 88.04 67.79
  Q 87.32 67.66 87.29 66.92
  Q 87.26 66.08 86.86 66.27"
/>
<path stroke="#827e83" vector-effect="non-scaling-stroke" d="
  M 86.86 66.27
  Q 86.71 65.05 85.76 65.04
  Q 84.61 65.04 83.74 64.57
  Q 83.43 64.41 83.14 64.61
  Q 82.67 64.93 82.50 65.45
  Q 82.26 66.20 83.04 66.13
  L 84.52 66.01
  Q 85.06 65.96 85.17 66.50
  Q 85.21 66.72 85.13 66.92
  Q 84.95 67.37 84.46 67.35
  Q 84.05 67.33 83.78 67.46"
/>
<path stroke="#776291" vector-effect="non-scaling-stroke" d="
  M 86.43 62.15
  Q 85.73 61.98 85.38 62.50
  A 0.57 0.56 -51.6 0 0 85.46 63.24
  L 88.42 66.04
  Q 88.94 66.52 89.51 66.11
  L 92.09 64.24"
/>
<path stroke="#3e3c43" vector-effect="non-scaling-stroke" d="
  M 97.53 61.81
  Q 98.64 61.83 99.78 62.17
  Q 99.83 62.18 100.97 60.73
  Q 101.42 60.14 100.81 59.73
  Q 100.62 59.61 100.74 59.42
  Q 101.40 58.41 101.09 57.25
  Q 100.97 56.77 100.58 56.46
  L 96.14 53.00"
/>
<path stroke="#3e3c43" vector-effect="non-scaling-stroke" d="
  M 82.40 84.65
  Q 83.78 84.72 84.13 84.98"
/>
<path stroke="#5b5663" vector-effect="non-scaling-stroke" d="
  M 95.99 88.00
  Q 96.18 87.88 96.48 88.19"
/>
<path stroke="#2e2f31" vector-effect="non-scaling-stroke" d="
  M 88.84 97.47
  Q 89.29 95.66 89.01 95.40"
/>
<path stroke="#3e3c43" vector-effect="non-scaling-stroke" d="
  M 89.01 95.40
  Q 89.73 94.91 88.71 94.26
  Q 88.27 93.98 87.79 93.91
  Q 86.24 93.68 84.61 93.20
  A 0.32 0.32 0.0 0 0 84.21 93.56
  Q 84.26 93.84 84.74 94.26"
/>
<path stroke="#2e2f31" vector-effect="non-scaling-stroke" d="
  M 84.74 94.26
  Q 84.14 94.36 83.98 94.52"
/>
<path stroke="#2e2f31" vector-effect="non-scaling-stroke" d="
  M 38.11 99.61
  Q 37.90 99.81 37.29 99.57"
/>
<path stroke="#3e3c43" vector-effect="non-scaling-stroke" d="
  M 23.92 73.41
  Q 24.22 74.95 27.61 74.34"
/>
<path stroke="#827e83" vector-effect="non-scaling-stroke" d="
  M 36.83 71.16
  Q 37.15 68.72 38.60 66.78
  Q 39.42 65.70 41.28 64.70
  Q 42.82 63.88 44.30 62.99"
/>
<path stroke="#5b5663" vector-effect="non-scaling-stroke" d="
  M 44.30 62.99
  L 47.04 62.82
  Q 47.76 62.77 47.44 62.13
  C 46.97 61.19 45.41 60.98 44.74 59.86
  Q 44.24 59.03 43.58 58.36
  Q 42.54 57.33 41.39 56.28"
/>
<path stroke="#827e83" vector-effect="non-scaling-stroke" d="
  M 41.39 56.28
  Q 41.14 53.92 39.21 54.49"
/>
<path stroke="#2e2f31" vector-effect="non-scaling-stroke" d="
  M 39.21 54.49
  Q 39.17 53.19 38.96 52.96"
/>
<path stroke="#827e83" vector-effect="non-scaling-stroke" d="
  M 37.60 44.96
  L 38.16 40.28"
/>
<path stroke="#5b5660" vector-effect="non-scaling-stroke" d="
  M 74.50 35.30
  Q 72.37 34.39 71.16 32.49
  Q 70.89 32.08 70.43 31.90
  Q 68.33 31.07 66.73 29.48
  Q 66.38 29.14 65.89 29.13
  Q 65.00 29.11 64.48 28.88
  Q 61.81 27.72 60.67 30.13"
/>
<path stroke="#afa4b2" vector-effect="non-scaling-stroke" d="
  M 86.86 66.27
  Q 87.04 66.93 86.97 67.49
  Q 86.90 68.06 86.35 67.89
  Q 86.18 67.83 85.99 67.90
  Q 85.68 68.00 85.66 68.33
  L 85.64 68.72"
/>
<path stroke="#827e80" vector-effect="non-scaling-stroke" d="
  M 111.96 55.30
  Q 113.21 54.32 112.66 52.47
  A 1.92 1.91 78.4 0 0 110.61 51.11
  Q 108.75 51.31 107.03 52.23"
/>
<path stroke="#2e2f31" vector-effect="non-scaling-stroke" d="
  M 107.03 52.23
  Q 106.71 51.89 105.82 51.49"
/>
<path stroke="#928b92" vector-effect="non-scaling-stroke" d="
  M 35.80 44.89
  L 36.72 44.86
  Q 37.25 44.85 37.10 44.33
  Q 36.66 42.89 37.38 41.10"
/>
<path stroke="#afa4b2" vector-effect="non-scaling-stroke" d="
  M 41.39 56.28
  Q 40.99 58.58 41.91 61.17
  A 1.00 0.97 -1.6 0 0 42.57 61.78
  Q 43.29 61.98 43.98 62.18
  Q 44.59 62.35 44.30 62.99"
/>
<path stroke="#827e83" vector-effect="non-scaling-stroke" d="
  M 35.98 69.56
  Q 34.09 65.59 35.29 62.43"
/>
<path stroke="#827e80" vector-effect="non-scaling-stroke" d="
  M 39.21 54.49
  Q 38.86 55.50 38.19 56.25"
/>
<path stroke="#5b5660" vector-effect="non-scaling-stroke" d="
  M 38.19 56.25
  Q 37.33 56.31 37.03 55.97
  Q 36.76 55.67 36.95 55.31
  Q 38.33 52.79 36.26 50.99
  Q 34.68 49.62 35.24 51.63
  L 37.06 58.21"
/>
<path stroke="#827e80" vector-effect="non-scaling-stroke" d="
  M 37.06 58.21
  L 36.67 58.56"
/>
<path stroke="#827e80" vector-effect="non-scaling-stroke" d="
  M 30.96 54.19
  L 30.94 52.76
  Q 30.93 52.13 31.56 52.09
  Q 31.74 52.08 31.91 52.14
  Q 32.56 52.39 32.16 52.96
  Q 30.86 54.82 33.23 56.12
  Q 33.80 56.43 33.73 55.79
  L 33.42 52.77
  Q 33.34 52.02 32.72 51.61
  Q 30.84 50.36 29.81 51.96"
/>
<path stroke="#3e3c40" vector-effect="non-scaling-stroke" d="
  M 89.01 95.40
  Q 87.85 94.76 86.25 94.87
  Q 85.46 94.93 84.74 94.26"
/>
<path stroke="#afa4b2" vector-effect="non-scaling-stroke" d="
  M 38.19 56.25
  L 37.06 58.21"
/>
<path stroke="#876fa0" vector-effect="non-scaling-stroke" d="
  M 82.23 28.87
  A 0.40 0.39 9.0 0 0 81.85 29.14
  Q 80.45 33.33 81.20 38.30
  Q 81.31 39.01 82.00 38.81
  Q 82.63 38.63 82.80 37.71
  A 1.56 1.55 -52.4 0 0 82.68 36.77
  Q 81.03 33.30 82.70 29.05
  Q 82.77 28.87 82.58 28.87
  L 82.23 28.87"
/>
<path stroke="#876fa0" vector-effect="non-scaling-stroke" d="
  M 104.42 49.46
  Q 104.92 50.36 105.11 50.29
  A 1.17 1.09 59.9 0 0 105.53 48.48
  Q 105.01 47.86 104.51 48.48
  A 0.87 0.87 0.0 0 0 104.42 49.46"
/>
<path stroke="#876fa0" vector-effect="non-scaling-stroke" d="
  M 86.72 85.14
  L 88.31 85.82
  A 0.66 0.66 0.0 0 0 89.20 85.01
  Q 88.60 83.16 89.76 81.97
  Q 90.00 81.73 89.96 81.39
  L 89.48 78.00
  Q 89.42 77.58 89.10 77.87
  Q 87.42 79.38 87.44 81.28
  Q 87.45 82.09 86.92 82.71
  Q 86.32 83.42 86.23 84.32
  A 0.82 0.81 -76.1 0 0 86.72 85.14"
/>
<path stroke="#776291" vector-effect="non-scaling-stroke" d="
  M 42.16 110.30
  C 43.21 107.98 45.38 107.06 46.28 104.70
  Q 46.45 104.24 46.09 103.91
  L 42.74 100.78
  Q 40.77 98.94 40.88 101.63
  C 40.97 103.59 38.71 103.56 37.42 103.51
  Q 36.57 103.48 36.35 104.31
  Q 36.03 105.51 35.02 106.29
  Q 34.59 106.63 34.88 107.09
  L 36.46 109.63
  Q 36.76 110.10 36.47 110.58
  L 34.47 113.90
  Q 34.20 114.35 34.37 114.84
  L 35.02 116.69
  Q 35.22 117.27 35.75 116.95
  Q 40.44 114.10 42.16 110.30"
/>
<path stroke="#776291" vector-effect="non-scaling-stroke" d="
  M 24.05 117.72
  L 23.97 114.19
  Q 23.97 113.90 23.68 113.84
  L 20.76 113.22
  Q 20.49 113.17 20.54 113.43
  Q 21.13 116.88 20.93 120.66
  A 1.26 1.25 -5.8 0 0 22.50 121.94
  C 23.87 121.58 24.89 122.52 26.17 122.74
  Q 28.56 123.15 30.74 123.93
  Q 31.99 124.37 31.92 123.05
  L 31.60 117.05
  Q 31.53 115.55 30.06 115.23
  L 25.68 114.28
  A 0.71 0.71 0.0 0 0 24.88 115.25
  Q 25.53 116.76 24.64 117.92
  Q 24.07 118.65 24.05 117.72"
/>
<path stroke="#776291" vector-effect="non-scaling-stroke" d="
  M 103.36 138.39
  Q 102.48 137.23 103.83 136.69
  Q 104.31 136.50 103.89 136.20
  Q 103.29 135.78 102.69 135.97
  Q 102.18 136.13 102.16 136.66
  Q 102.10 138.06 102.60 139.12
  A 0.28 0.28 0.0 0 0 103.05 139.20
  L 103.32 138.93
  A 0.42 0.41 -41.6 0 0 103.36 138.39"
/>
<path stroke="#a488c0" vector-effect="non-scaling-stroke" d="
  M 104.84 138.91
  Q 106.28 139.01 106.83 139.51"
/>
<path stroke="#876fa0" vector-effect="non-scaling-stroke" d="
  M 106.83 139.51
  Q 107.79 140.01 108.83 140.09
  Q 109.30 140.12 109.61 140.48
  Q 110.72 141.79 112.89 141.29
  Q 113.60 141.13 113.81 140.43
  Q 114.29 138.81 113.02 138.01
  C 111.78 137.22 110.22 138.09 108.59 137.16"
/>
<path stroke="#776291" vector-effect="non-scaling-stroke" d="
  M 108.59 137.16
  L 105.76 136.77
  Q 105.24 136.69 105.00 137.16
  Q 104.55 138.03 104.84 138.91"
/>
<path stroke="#3e3c43" vector-effect="non-scaling-stroke" d="
  M 108.59 137.16
  L 108.70 137.84
  Q 108.80 138.46 108.20 138.27
  Q 107.32 137.99 106.54 138.21"
/>
<path stroke="#5b5663" vector-effect="non-scaling-stroke" d="
  M 106.54 138.21
  Q 106.57 139.04 104.84 138.91"
/>
<path stroke="#6b6371" vector-effect="non-scaling-stroke" d="
  M 106.83 139.51
  L 107.65 139.34
  Q 108.35 139.19 107.96 138.59
  Q 107.59 138.01 106.54 138.21"
/>
<path stroke="#5b5660" vector-effect="non-scaling-stroke" d="
  M 90.42 54.98
  L 92.98 52.02
  Q 93.69 51.19 92.60 51.30
  Q 91.95 51.36 91.62 51.97
  Q 91.38 52.41 90.95 52.68
  Q 89.09 53.80 89.36 55.61
  A 1.04 1.03 -22.6 0 1 88.95 56.59
  L 85.70 59.05
  Q 85.13 59.48 85.83 59.38
  C 87.63 59.15 89.69 57.49 90.10 55.62
  Q 90.17 55.26 90.42 54.98"
/>
<path stroke="#827e83" vector-effect="non-scaling-stroke" d="
  M 100.72 52.97
  Q 100.17 53.90 101.82 55.08"
/>
<path stroke="#5b5663" vector-effect="non-scaling-stroke" d="
  M 101.82 55.08
  Q 101.85 55.15 102.06 55.13
  Q 102.27 55.11 102.22 54.91
  Q 101.91 53.67 102.61 52.50
  A 0.87 0.86 -49.4 0 0 102.54 51.50
  Q 102.02 50.88 101.32 50.37
  Q 101.12 50.24 101.02 50.45
  L 100.89 50.71
  A 0.04 0.03 -78.3 0 0 100.92 50.76
  Q 101.69 50.81 101.64 51.43
  Q 101.59 51.95 101.19 52.28
  Q 100.80 52.60 100.72 52.97"
/>
<path stroke="#afa4b2" vector-effect="non-scaling-stroke" d="
  M 101.82 55.08
  Q 102.28 54.72 102.13 53.75
  Q 102.01 52.91 100.72 52.97"
/>
<path stroke="#6b6371" vector-effect="non-scaling-stroke" d="
  M 112.01 140.16
  Q 112.19 140.14 112.35 140.08
  Q 112.59 139.99 112.62 139.72
  Q 112.64 139.56 112.62 139.40
  Q 112.58 138.80 112.03 139.05
  Q 111.25 139.39 110.67 140.24
  Q 110.46 140.56 110.82 140.42
  Q 111.17 140.29 111.54 140.22
  Q 111.77 140.18 112.01 140.16"
/>
</g>
<path fill="#bf94ee" d="
  M 135.80 12.02
  L 121.34 149.36
  A 0.34 0.34 0.0 0 1 120.92 149.66
  L 16.10 124.32
  A 0.34 0.34 0.0 0 1 15.84 124.01
  L 7.59 18.23
  A 0.34 0.34 0.0 0 1 7.91 17.86
  L 135.44 11.65
  A 0.34 0.34 0.0 0 1 135.80 12.02
  Z
  M 86.43 16.15
  Q 86.53 16.41 86.92 16.28
  A 0.55 0.55 0.0 0 0 87.25 15.58
  Q 87.11 15.15 86.46 15.06
  A 0.48 0.48 0.0 0 0 85.93 15.47
  Q 85.84 16.07 86.27 16.05
  Q 86.38 16.05 86.43 16.15
  Z
  M 85.64 26.97
  Q 87.97 25.86 88.87 24.53
  Q 89.43 23.70 88.55 23.22
  A 0.92 0.91 25.7 0 0 87.26 23.67
  Q 86.65 25.14 85.10 25.79
  Q 84.78 25.93 84.86 26.26
  L 84.96 26.64
  A 0.49 0.49 0.0 0 0 85.64 26.97
  Z
  M 24.46 25.17
  Q 24.23 24.93 23.90 25.09
  Q 23.40 25.33 23.86 25.65
  Q 25.10 26.49 26.75 25.80
  Q 26.96 25.72 26.89 25.50
  L 26.78 25.14
  Q 26.67 24.78 26.33 24.93
  L 25.38 25.35
  Q 24.86 25.57 24.46 25.17
  Z
  M 19.9471 27.1801
  A 1.32 0.28 131.4 0 0 21.0300 26.3752
  A 1.32 0.28 131.4 0 0 21.6929 25.1999
  A 1.32 0.28 131.4 0 0 20.6100 26.0048
  A 1.32 0.28 131.4 0 0 19.9471 27.1801
  Z
  M 80.54 40.82
  Q 80.61 39.22 79.63 38.10
  A 0.68 0.66 -32.0 0 0 78.85 37.93
  C 77.00 38.78 75.56 36.44 74.50 35.30
  Q 71.92 31.18 67.86 28.85
  C 66.73 28.20 65.79 27.32 64.75 26.55
  A 0.91 0.89 49.9 0 0 63.83 26.46
  Q 60.73 27.98 60.67 30.13
  L 60.29 31.97
  L 60.35 31.39
  A 0.20 0.20 0.0 0 0 59.98 31.26
  L 57.78 34.73
  A 1.03 1.01 -78.0 0 1 57.07 35.20
  Q 56.67 35.27 56.31 35.14
  Q 55.80 34.95 55.76 34.41
  Q 55.72 33.97 55.41 33.69
  Q 55.04 33.37 54.57 33.44
  Q 53.16 33.63 52.19 32.55
  L 49.26 28.75
  Q 48.94 28.34 48.43 28.30
  Q 47.09 28.21 46.11 29.22
  Q 45.66 29.69 45.75 30.33
  C 46.01 32.13 46.32 34.44 47.89 35.60
  Q 50.16 37.28 52.13 39.18
  C 53.06 40.07 54.35 40.47 55.53 40.95
  A 1.45 1.45 0.0 0 1 55.54 43.62
  L 51.03 45.52
  Q 45.78 42.38 40.68 39.18
  Q 39.74 38.58 39.21 38.76
  Q 38.47 39.02 38.16 40.28
  Q 37.95 41.11 37.38 41.10
  Q 33.08 43.20 35.80 44.89
  L 37.60 44.96
  C 40.35 45.20 44.37 46.04 45.60 48.81
  Q 45.79 49.26 45.36 49.49
  L 38.96 52.96
  Q 38.27 52.25 38.24 51.74
  Q 37.93 45.97 32.24 46.29
  A 1.47 1.42 20.0 0 0 31.28 46.72
  Q 29.74 48.28 27.92 49.49
  Q 27.49 49.77 27.61 50.27
  Q 27.97 51.71 29.81 51.96
  Q 30.97 52.30 30.96 54.19
  Q 31.00 56.79 33.00 57.20
  Q 33.85 57.37 33.49 58.16
  Q 33.35 58.46 33.47 58.76
  Q 33.83 59.73 34.53 58.97
  Q 35.47 57.94 36.67 58.56
  Q 36.29 60.61 35.29 62.43
  Q 34.63 62.03 33.93 62.95
  Q 33.62 63.36 33.71 63.86
  C 34.04 65.80 33.95 68.49 35.98 69.56
  Q 35.99 70.00 36.83 71.16
  Q 36.71 73.96 34.50 73.70
  Q 32.05 73.41 27.61 74.34
  Q 26.66 74.38 25.91 74.17
  Q 25.47 74.05 25.38 73.59
  L 24.82 70.75
  Q 24.65 69.90 24.36 70.71
  Q 23.95 71.83 23.92 73.41
  Q 23.92 74.99 22.73 75.51
  Q 22.24 75.73 21.94 75.28
  Q 20.82 73.59 22.09 72.09
  Q 22.41 71.72 22.40 71.24
  L 22.38 67.70
  A 1.47 1.42 27.0 0 0 22.10 66.88
  L 21.15 65.59
  Q 20.88 65.22 20.91 64.76
  Q 20.93 64.38 20.68 64.06
  Q 20.37 63.67 20.38 64.17
  C 20.42 66.46 21.00 68.63 20.76 70.91
  Q 20.29 75.46 20.86 80.17
  A 3.75 3.70 23.0 0 0 21.63 82.04
  Q 27.18 89.23 30.88 97.67
  A 1.07 1.05 1.0 0 0 31.41 98.21
  Q 32.23 98.58 33.06 98.12
  Q 33.50 97.88 33.84 98.26
  Q 34.95 99.49 36.18 98.22
  A 0.86 0.86 0.0 0 1 37.65 98.83
  Q 37.64 99.26 37.29 99.57
  Q 35.99 99.39 35.65 100.61
  A 0.90 0.90 0.0 0 0 36.76 101.72
  L 38.19 101.32
  Q 38.74 101.16 38.66 100.59
  Q 38.61 100.15 38.11 99.61
  L 38.65 99.22
  A 0.89 0.89 0.0 0 0 38.17 97.60
  Q 37.26 97.56 36.80 96.80
  A 0.63 0.62 57.4 0 1 36.98 95.96
  Q 38.00 95.27 37.30 94.27
  Q 33.68 89.15 30.43 83.30
  Q 30.11 82.72 30.77 82.70
  L 37.59 82.53
  A 1.72 1.71 85.3 0 1 39.33 84.01
  Q 39.91 88.29 41.73 92.80
  Q 42.12 93.78 42.89 94.58
  Q 43.71 95.44 44.28 96.64
  Q 44.74 97.62 45.74 97.28
  Q 46.21 97.12 46.20 96.63
  Q 46.18 91.18 44.73 86.12
  Q 44.58 85.57 44.95 85.13
  L 45.51 84.46
  Q 45.92 83.98 45.88 83.35
  Q 45.71 81.04 47.96 80.10
  Q 51.10 78.79 52.62 76.24
  Q 52.90 75.78 53.43 75.86
  Q 55.17 76.14 56.85 75.59
  Q 57.74 75.29 58.51 75.82
  Q 66.34 81.22 73.90 86.18
  Q 74.84 86.80 75.77 86.91
  Q 76.68 87.02 77.65 87.15
  Q 78.22 87.22 78.61 87.64
  Q 79.42 88.51 80.49 88.09
  A 1.17 1.16 -5.9 0 0 81.22 87.20
  Q 81.35 86.43 81.95 85.97
  A 0.47 0.47 0.0 0 1 82.70 86.39
  Q 82.52 88.21 82.69 90.23
  C 82.84 91.94 82.68 93.13 83.98 94.52
  Q 84.84 96.96 86.50 98.69
  Q 86.86 99.07 87.37 98.93
  Q 88.16 98.72 88.84 97.47
  Q 94.12 97.16 99.19 91.84
  A 0.47 0.47 0.0 0 0 99.07 91.10
  Q 97.42 90.21 96.48 88.19
  Q 97.46 85.43 95.62 84.64
  Q 95.20 84.46 94.92 84.08
  Q 94.53 83.54 93.90 83.26
  Q 92.95 82.84 93.15 83.87
  Q 93.28 84.55 92.86 85.03
  Q 92.17 85.82 93.21 85.78
  Q 95.73 85.67 95.99 88.00
  Q 95.06 88.90 93.69 89.07
  Q 93.18 89.14 92.78 88.83
  Q 89.43 86.31 85.25 85.82
  Q 84.73 85.76 84.13 84.98
  C 85.37 82.48 85.88 79.93 85.19 77.13
  Q 84.68 75.04 85.45 73.17
  A 0.14 0.13 18.8 0 0 85.35 72.98
  L 85.01 72.91
  Q 84.70 72.85 84.66 73.16
  L 83.59 80.70
  Q 83.51 81.28 83.15 81.74
  Q 82.33 82.82 82.95 83.93
  Q 83.16 84.31 82.78 84.50
  Q 82.63 84.58 82.40 84.65
  Q 81.62 84.30 81.01 85.01
  Q 79.65 86.59 79.22 86.91
  Q 78.85 87.19 78.44 87.02
  A 0.52 0.52 0.0 0 1 78.21 86.27
  Q 79.17 84.73 80.62 83.72
  Q 81.20 83.32 80.58 82.98
  Q 79.33 82.29 78.27 83.48
  Q 77.66 84.16 77.75 83.25
  Q 77.86 82.01 79.14 82.10
  Q 79.97 82.15 79.63 81.39
  C 78.90 79.74 76.98 79.19 75.67 78.02
  Q 67.91 71.04 59.42 65.28
  Q 58.87 64.91 58.95 64.26
  L 59.06 63.40
  Q 59.14 62.69 58.56 62.27
  Q 56.55 60.81 54.59 59.26
  C 53.45 58.36 53.29 57.09 52.26 56.13
  A 0.15 0.15 0.0 0 0 52.12 56.09
  Q 51.98 56.13 51.86 56.21
  Q 51.01 56.70 51.52 55.87
  Q 53.50 52.62 53.86 50.23
  Q 54.07 48.82 52.11 47.53
  Q 53.23 46.71 54.03 47.46
  Q 55.17 48.54 56.29 49.32
  A 2.22 2.22 0.0 0 0 59.76 47.85
  Q 59.96 46.58 59.47 45.20
  Q 59.27 44.62 58.71 44.86
  Q 58.15 45.10 57.64 44.70
  Q 57.24 44.39 57.70 44.17
  Q 58.24 43.91 58.72 44.22
  A 0.51 0.51 0.0 0 0 59.41 44.10
  Q 59.94 43.39 60.72 43.25
  Q 61.21 43.17 61.63 43.44
  Q 64.07 45.08 66.92 45.57
  A 2.15 2.14 89.2 0 1 68.65 47.26
  C 69.16 49.82 69.90 56.04 72.98 56.83
  Q 75.86 57.58 78.50 57.49
  Q 78.97 57.48 79.36 57.74
  L 82.91 60.18
  Q 83.54 60.22 83.50 60.83
  Q 83.48 61.13 83.20 61.53
  Q 81.56 63.87 81.49 66.79
  Q 81.47 67.32 82.00 67.35
  L 83.78 67.46
  Q 85.33 67.23 85.64 68.72
  Q 85.70 69.00 85.90 69.06
  L 88.37 71.90
  Q 88.72 72.29 89.24 72.34
  Q 91.32 72.51 92.94 71.81
  C 94.66 71.06 95.33 69.20 97.31 68.74
  C 99.99 68.12 102.29 66.35 102.99 63.56
  Q 103.34 62.20 104.47 61.35
  Q 105.14 60.84 105.27 60.00
  Q 105.30 59.74 105.44 59.50
  Q 105.77 58.92 106.43 59.05
  Q 107.23 59.20 107.79 58.73
  Q 108.21 58.39 108.10 57.85
  L 107.77 56.31
  A 0.54 0.54 0.0 0 1 108.48 55.69
  Q 109.67 56.09 110.87 55.92
  Q 111.60 55.82 111.33 55.04
  L 111.96 55.30
  Q 111.57 55.69 111.59 56.41
  Q 111.61 57.06 110.97 56.94
  Q 109.89 56.73 109.31 57.53
  Q 108.20 59.03 109.99 58.48
  Q 111.91 57.88 113.36 58.68
  Q 113.95 59.01 114.47 58.58
  L 117.03 56.42
  Q 117.52 56.01 117.41 55.38
  Q 116.85 52.35 116.21 51.27
  Q 113.83 47.16 109.71 49.16
  Q 109.24 49.39 109.06 49.89
  L 108.88 50.38
  Q 108.52 51.35 107.96 50.46
  Q 107.76 50.15 107.45 50.26
  Q 107.01 50.43 106.95 50.91
  Q 106.85 51.84 105.82 51.49
  Q 104.30 52.36 103.43 50.97
  Q 103.01 50.30 102.23 50.18
  Q 101.40 50.06 100.86 49.55
  Q 100.25 48.97 100.30 49.81
  Q 100.35 50.48 100.04 50.94
  Q 99.18 50.93 99.06 50.00
  Q 98.91 48.87 98.02 48.30
  Q 99.46 44.69 95.26 44.18
  Q 90.34 43.74 89.12 40.41
  Q 88.51 38.73 88.76 34.11
  Q 88.99 29.88 90.28 26.81
  Q 90.44 26.44 90.26 26.02
  Q 90.01 25.46 89.89 26.06
  Q 89.31 28.88 87.24 30.13
  Q 86.94 30.31 87.08 30.63
  Q 87.17 30.83 87.38 30.90
  Q 87.92 31.09 87.89 31.66
  Q 87.77 33.96 86.82 36.12
  Q 86.62 36.57 86.62 37.06
  L 86.62 40.29
  Q 86.62 41.03 85.95 40.70
  L 84.86 40.16
  Q 84.23 39.85 84.60 39.25
  Q 85.14 38.39 85.01 37.31
  Q 84.94 36.79 85.12 36.29
  Q 86.09 33.53 85.71 30.76
  Q 85.69 30.61 85.54 30.61
  Q 85.42 30.60 85.30 30.55
  Q 85.19 30.50 85.18 30.62
  L 84.00 38.75
  Q 83.93 39.27 83.46 39.48
  L 80.54 40.82
  Z
  M 82.23 28.87
  A 0.40 0.39 9.0 0 0 81.85 29.14
  Q 80.45 33.33 81.20 38.30
  Q 81.31 39.01 82.00 38.81
  Q 82.63 38.63 82.80 37.71
  A 1.56 1.55 -52.4 0 0 82.68 36.77
  Q 81.03 33.30 82.70 29.05
  Q 82.77 28.87 82.58 28.87
  L 82.23 28.87
  Z
  M 104.42 49.46
  Q 104.92 50.36 105.11 50.29
  A 1.17 1.09 59.9 0 0 105.53 48.48
  Q 105.01 47.86 104.51 48.48
  A 0.87 0.87 0.0 0 0 104.42 49.46
  Z
  M 86.72 85.14
  L 88.31 85.82
  A 0.66 0.66 0.0 0 0 89.20 85.01
  Q 88.60 83.16 89.76 81.97
  Q 90.00 81.73 89.96 81.39
  L 89.48 78.00
  Q 89.42 77.58 89.10 77.87
  Q 87.42 79.38 87.44 81.28
  Q 87.45 82.09 86.92 82.71
  Q 86.32 83.42 86.23 84.32
  A 0.82 0.81 -76.1 0 0 86.72 85.14
  Z
  M 42.16 110.30
  C 43.21 107.98 45.38 107.06 46.28 104.70
  Q 46.45 104.24 46.09 103.91
  L 42.74 100.78
  Q 40.77 98.94 40.88 101.63
  C 40.97 103.59 38.71 103.56 37.42 103.51
  Q 36.57 103.48 36.35 104.31
  Q 36.03 105.51 35.02 106.29
  Q 34.59 106.63 34.88 107.09
  L 36.46 109.63
  Q 36.76 110.10 36.47 110.58
  L 34.47 113.90
  Q 34.20 114.35 34.37 114.84
  L 35.02 116.69
  Q 35.22 117.27 35.75 116.95
  Q 40.44 114.10 42.16 110.30
  Z
  M 24.05 117.72
  L 23.97 114.19
  Q 23.97 113.90 23.68 113.84
  L 20.76 113.22
  Q 20.49 113.17 20.54 113.43
  Q 21.13 116.88 20.93 120.66
  A 1.26 1.25 -5.8 0 0 22.50 121.94
  C 23.87 121.58 24.89 122.52 26.17 122.74
  Q 28.56 123.15 30.74 123.93
  Q 31.99 124.37 31.92 123.05
  L 31.60 117.05
  Q 31.53 115.55 30.06 115.23
  L 25.68 114.28
  A 0.71 0.71 0.0 0 0 24.88 115.25
  Q 25.53 116.76 24.64 117.92
  Q 24.07 118.65 24.05 117.72
  Z
  M 103.36 138.39
  Q 102.48 137.23 103.83 136.69
  Q 104.31 136.50 103.89 136.20
  Q 103.29 135.78 102.69 135.97
  Q 102.18 136.13 102.16 136.66
  Q 102.10 138.06 102.60 139.12
  A 0.28 0.28 0.0 0 0 103.05 139.20
  L 103.32 138.93
  A 0.42 0.41 -41.6 0 0 103.36 138.39
  Z
  M 104.84 138.91
  Q 106.28 139.01 106.83 139.51
  Q 107.79 140.01 108.83 140.09
  Q 109.30 140.12 109.61 140.48
  Q 110.72 141.79 112.89 141.29
  Q 113.60 141.13 113.81 140.43
  Q 114.29 138.81 113.02 138.01
  C 111.78 137.22 110.22 138.09 108.59 137.16
  L 105.76 136.77
  Q 105.24 136.69 105.00 137.16
  Q 104.55 138.03 104.84 138.91
  Z"
/>
<path fill="#887c91" d="
  M 86.27 16.05
  Q 85.84 16.07 85.93 15.47
  A 0.48 0.48 0.0 0 1 86.46 15.06
  Q 87.11 15.15 87.25 15.58
  A 0.55 0.55 0.0 0 1 86.92 16.28
  Q 86.53 16.41 86.43 16.15
  Q 86.38 16.05 86.27 16.05
  Z"
/>
<path fill="#2e2f34" d="
  M 85.64 26.97
  A 0.49 0.49 0.0 0 1 84.96 26.64
  L 84.86 26.26
  Q 84.78 25.93 85.10 25.79
  Q 86.65 25.14 87.26 23.67
  A 0.92 0.91 25.7 0 1 88.55 23.22
  Q 89.43 23.70 88.87 24.53
  Q 87.97 25.86 85.64 26.97
  Z"
/>
<path fill="#887c91" d="
  M 25.38 25.35
  L 26.33 24.93
  Q 26.67 24.78 26.78 25.14
  L 26.89 25.50
  Q 26.96 25.72 26.75 25.80
  Q 25.10 26.49 23.86 25.65
  Q 23.40 25.33 23.90 25.09
  Q 24.23 24.93 24.46 25.17
  Q 24.86 25.57 25.38 25.35
  Z"
/>
<ellipse fill="#2e2f34" cx="0.00" cy="0.00" transform="translate(20.82,26.19) rotate(131.4)" rx="1.32" ry="0.28"/>
<path fill="#4e4951" d="
  M 95.26 44.18
  Q 93.53 46.25 98.02 48.30
  Q 98.91 48.87 99.06 50.00
  Q 99.18 50.93 100.04 50.94
  Q 99.40 51.98 98.56 51.77
  L 95.65 49.60
  Q 95.16 49.24 94.55 49.16
  Q 93.17 48.99 91.58 48.60
  Q 90.72 48.39 90.32 47.69
  A 0.63 0.61 64.3 0 0 89.55 47.41
  L 86.44 48.62
  A 2.02 2.02 0.0 0 0 85.45 49.43
  Q 83.63 52.25 80.29 52.34
  Q 78.90 52.37 79.60 51.17
  L 79.82 50.78
  Q 80.43 49.72 81.65 49.61
  C 84.68 49.35 86.17 47.76 88.33 45.96
  Q 88.69 45.66 88.64 45.20
  L 88.52 44.22
  Q 89.82 45.82 91.42 45.92
  Q 92.38 45.98 91.69 45.31
  L 89.75 43.41
  Q 89.24 42.91 88.66 43.34
  Q 88.16 43.72 88.52 44.22
  Q 87.67 43.05 87.06 43.22
  Q 88.17 42.65 88.05 41.50
  Q 88.00 40.99 87.49 40.95
  A 0.51 0.50 -87.4 0 0 86.94 41.46
  L 86.95 42.08
  A 0.55 0.55 0.0 0 1 86.16 42.59
  L 83.92 41.53
  Q 83.34 41.25 83.14 41.86
  Q 82.96 42.41 83.47 42.72
  Q 82.33 42.65 82.04 43.32
  Q 81.98 43.47 81.86 43.57
  Q 81.72 43.70 81.53 43.60
  Q 81.23 43.45 81.24 43.11
  Q 81.28 41.61 80.54 40.82
  L 83.46 39.48
  Q 83.93 39.27 84.00 38.75
  L 85.18 30.62
  Q 85.19 30.50 85.30 30.55
  Q 85.42 30.60 85.54 30.61
  Q 85.69 30.61 85.71 30.76
  Q 86.09 33.53 85.12 36.29
  Q 84.94 36.79 85.01 37.31
  Q 85.14 38.39 84.60 39.25
  Q 84.23 39.85 84.86 40.16
  L 85.95 40.70
  Q 86.62 41.03 86.62 40.29
  L 86.62 37.06
  Q 86.62 36.57 86.82 36.12
  Q 87.77 33.96 87.89 31.66
  Q 87.92 31.09 87.38 30.90
  Q 87.17 30.83 87.08 30.63
  Q 86.94 30.31 87.24 30.13
  Q 89.31 28.88 89.89 26.06
  Q 90.01 25.46 90.26 26.02
  Q 90.44 26.44 90.28 26.81
  Q 88.99 29.88 88.76 34.11
  Q 88.51 38.73 89.12 40.41
  Q 90.34 43.74 95.26 44.18
  Z"
/>
<path fill="#887c91" d="
  M 74.50 35.30
  Q 72.37 34.39 71.16 32.49
  Q 70.89 32.08 70.43 31.90
  Q 68.33 31.07 66.73 29.48
  Q 66.38 29.14 65.89 29.13
  Q 65.00 29.11 64.48 28.88
  Q 61.81 27.72 60.67 30.13
  Q 60.73 27.98 63.83 26.46
  A 0.91 0.89 49.9 0 1 64.75 26.55
  C 65.79 27.32 66.73 28.20 67.86 28.85
  Q 71.92 31.18 74.50 35.30
  Z"
/>
<path fill="#2e2f2e" d="
  M 52.19 32.55
  Q 52.44 33.67 53.60 34.31
  Q 54.11 34.59 54.07 35.17
  Q 54.02 35.79 54.16 36.38
  Q 54.40 37.37 55.39 37.33
  Q 55.78 37.31 55.86 36.93
  Q 56.11 35.81 57.17 35.88
  Q 57.55 35.90 57.72 36.24
  Q 58.77 38.32 61.48 39.25
  C 62.64 39.65 63.95 39.33 65.15 39.30
  Q 66.47 39.27 67.82 39.65
  Q 70.67 40.44 73.89 40.52
  A 0.05 0.04 78.3 0 0 73.93 40.45
  Q 73.41 39.42 72.37 38.89
  A 2.54 2.48 54.3 0 0 70.90 38.63
  Q 67.55 39.04 65.26 37.18
  A 1.91 1.90 61.9 0 0 63.92 36.77
  Q 62.70 36.86 61.60 37.45
  A 1.20 1.19 -11.3 0 1 59.84 36.28
  L 60.29 31.97
  L 60.67 30.13
  Q 61.81 27.72 64.48 28.88
  Q 65.00 29.11 65.89 29.13
  Q 66.38 29.14 66.73 29.48
  Q 68.33 31.07 70.43 31.90
  Q 70.89 32.08 71.16 32.49
  Q 72.37 34.39 74.50 35.30
  C 75.56 36.44 77.00 38.78 78.85 37.93
  A 0.68 0.66 -32.0 0 1 79.63 38.10
  Q 80.61 39.22 80.54 40.82
  Q 81.28 41.61 81.24 43.11
  Q 81.23 43.45 81.53 43.60
  Q 81.72 43.70 81.86 43.57
  Q 81.98 43.47 82.04 43.32
  Q 82.33 42.65 83.47 42.72
  L 84.78 43.16
  Q 85.42 43.37 84.91 43.81
  Q 83.26 45.24 81.53 44.84
  A 0.58 0.57 26.5 0 0 80.98 45.02
  Q 80.79 45.22 80.92 45.47
  Q 81.08 45.78 81.39 45.93
  Q 84.38 47.33 85.77 44.20
  Q 86.06 43.53 87.06 43.22
  Q 87.67 43.05 88.52 44.22
  L 88.64 45.20
  Q 88.69 45.66 88.33 45.96
  C 86.17 47.76 84.68 49.35 81.65 49.61
  Q 80.43 49.72 79.82 50.78
  L 79.60 51.17
  Q 78.90 52.37 80.29 52.34
  Q 83.63 52.25 85.45 49.43
  A 2.02 2.02 0.0 0 1 86.44 48.62
  L 89.55 47.41
  A 0.63 0.61 64.3 0 1 90.32 47.69
  Q 90.72 48.39 91.58 48.60
  Q 93.17 48.99 94.55 49.16
  Q 95.16 49.24 95.65 49.60
  L 98.56 51.77
  Q 99.21 52.33 99.13 53.03
  A 0.80 0.79 -60.7 0 1 97.72 53.43
  Q 97.23 52.81 96.14 53.00
  Q 95.02 51.94 94.21 52.76
  Q 92.95 54.03 92.35 55.51
  Q 92.15 56.00 92.65 56.17
  Q 93.73 56.55 93.33 57.71
  Q 92.90 58.96 92.74 60.17
  A 1.00 0.99 2.9 0 0 93.76 61.29
  Q 95.73 61.24 97.53 61.81
  L 98.25 62.52
  A 0.96 0.96 0.0 0 1 97.59 64.16
  L 92.09 64.24
  Q 89.59 62.65 86.43 62.15
  Q 85.29 61.96 84.87 60.83
  Q 84.56 59.99 84.23 59.92
  Q 83.74 59.80 82.91 60.18
  L 79.36 57.74
  Q 78.97 57.48 78.50 57.49
  Q 75.86 57.58 72.98 56.83
  C 69.90 56.04 69.16 49.82 68.65 47.26
  A 2.15 2.14 89.2 0 0 66.92 45.57
  Q 64.07 45.08 61.63 43.44
  Q 61.21 43.17 60.72 43.25
  Q 59.94 43.39 59.41 44.10
  A 0.51 0.51 0.0 0 1 58.72 44.22
  Q 58.24 43.91 57.70 44.17
  Q 57.24 44.39 57.64 44.70
  Q 58.15 45.10 58.71 44.86
  Q 59.27 44.62 59.47 45.20
  Q 59.96 46.58 59.76 47.85
  A 2.22 2.22 0.0 0 1 56.29 49.32
  Q 55.17 48.54 54.03 47.46
  Q 53.23 46.71 52.11 47.53
  Q 51.39 46.59 51.03 45.52
  L 55.54 43.62
  A 1.45 1.45 0.0 0 0 55.53 40.95
  C 54.35 40.47 53.06 40.07 52.13 39.18
  Q 50.16 37.28 47.89 35.60
  C 46.32 34.44 46.01 32.13 45.75 30.33
  Q 45.66 29.69 46.11 29.22
  Q 47.09 28.21 48.43 28.30
  Q 48.94 28.34 49.26 28.75
  L 52.19 32.55
  Z
  M 90.42 54.98
  L 92.98 52.02
  Q 93.69 51.19 92.60 51.30
  Q 91.95 51.36 91.62 51.97
  Q 91.38 52.41 90.95 52.68
  Q 89.09 53.80 89.36 55.61
  A 1.04 1.03 -22.6 0 1 88.95 56.59
  L 85.70 59.05
  Q 85.13 59.48 85.83 59.38
  C 87.63 59.15 89.69 57.49 90.10 55.62
  Q 90.17 55.26 90.42 54.98
  Z"
/>
<path fill="#4e4951" d="
  M 82.23 28.87
  L 82.58 28.87
  Q 82.77 28.87 82.70 29.05
  Q 81.03 33.30 82.68 36.77
  A 1.56 1.55 -52.4 0 1 82.80 37.71
  Q 82.63 38.63 82.00 38.81
  Q 81.31 39.01 81.20 38.30
  Q 80.45 33.33 81.85 29.14
  A 0.40 0.39 9.0 0 1 82.23 28.87
  Z"
/>
<path fill="#887c91" d="
  M 60.29 31.97
  L 59.84 36.28
  A 1.20 1.19 -11.3 0 0 61.60 37.45
  Q 62.70 36.86 63.92 36.77
  A 1.91 1.90 61.9 0 1 65.26 37.18
  Q 67.55 39.04 70.90 38.63
  A 2.54 2.48 54.3 0 1 72.37 38.89
  Q 73.41 39.42 73.93 40.45
  A 0.05 0.04 78.3 0 1 73.89 40.52
  Q 70.67 40.44 67.82 39.65
  Q 66.47 39.27 65.15 39.30
  C 63.95 39.33 62.64 39.65 61.48 39.25
  Q 58.77 38.32 57.72 36.24
  Q 57.55 35.90 57.17 35.88
  Q 56.11 35.81 55.86 36.93
  Q 55.78 37.31 55.39 37.33
  Q 54.40 37.37 54.16 36.38
  Q 54.02 35.79 54.07 35.17
  Q 54.11 34.59 53.60 34.31
  Q 52.44 33.67 52.19 32.55
  Q 53.16 33.63 54.57 33.44
  Q 55.04 33.37 55.41 33.69
  Q 55.72 33.97 55.76 34.41
  Q 55.80 34.95 56.31 35.14
  Q 56.67 35.27 57.07 35.20
  A 1.03 1.01 -78.0 0 0 57.78 34.73
  L 59.98 31.26
  A 0.20 0.20 0.0 0 1 60.35 31.39
  L 60.29 31.97
  Z"
/>
<path fill="#2e2f34" d="
  M 51.03 45.52
  Q 51.39 46.59 52.11 47.53
  Q 54.07 48.82 53.86 50.23
  Q 53.50 52.62 51.52 55.87
  Q 51.01 56.70 51.86 56.21
  Q 51.98 56.13 52.12 56.09
  A 0.15 0.15 0.0 0 1 52.26 56.13
  C 53.29 57.09 53.45 58.36 54.59 59.26
  Q 56.55 60.81 58.56 62.27
  Q 59.14 62.69 59.06 63.40
  L 58.95 64.26
  Q 58.87 64.91 59.42 65.28
  Q 67.91 71.04 75.67 78.02
  C 76.98 79.19 78.90 79.74 79.63 81.39
  Q 79.97 82.15 79.14 82.10
  Q 77.86 82.01 77.75 83.25
  Q 77.66 84.16 78.27 83.48
  Q 79.33 82.29 80.58 82.98
  Q 81.20 83.32 80.62 83.72
  Q 79.17 84.73 78.21 86.27
  A 0.52 0.52 0.0 0 0 78.44 87.02
  Q 78.85 87.19 79.22 86.91
  Q 79.65 86.59 81.01 85.01
  Q 81.62 84.30 82.40 84.65
  Q 83.78 84.72 84.13 84.98
  Q 84.73 85.76 85.25 85.82
  Q 89.43 86.31 92.78 88.83
  Q 93.18 89.14 93.69 89.07
  Q 95.06 88.90 95.99 88.00
  Q 96.18 87.88 96.48 88.19
  Q 97.42 90.21 99.07 91.10
  A 0.47 0.47 0.0 0 1 99.19 91.84
  Q 94.12 97.16 88.84 97.47
  Q 89.29 95.66 89.01 95.40
  Q 89.73 94.91 88.71 94.26
  Q 88.27 93.98 87.79 93.91
  Q 86.24 93.68 84.61 93.20
  A 0.32 0.32 0.0 0 0 84.21 93.56
  Q 84.26 93.84 84.74 94.26
  Q 84.14 94.36 83.98 94.52
  C 82.68 93.13 82.84 91.94 82.69 90.23
  Q 82.52 88.21 82.70 86.39
  A 0.47 0.47 0.0 0 0 81.95 85.97
  Q 81.35 86.43 81.22 87.20
  A 1.17 1.16 -5.9 0 1 80.49 88.09
  Q 79.42 88.51 78.61 87.64
  Q 78.22 87.22 77.65 87.15
  Q 76.68 87.02 75.77 86.91
  Q 74.84 86.80 73.90 86.18
  Q 66.34 81.22 58.51 75.82
  Q 57.74 75.29 56.85 75.59
  Q 55.17 76.14 53.43 75.86
  Q 52.90 75.78 52.62 76.24
  Q 51.10 78.79 47.96 80.10
  Q 45.71 81.04 45.88 83.35
  Q 45.92 83.98 45.51 84.46
  L 44.95 85.13
  Q 44.58 85.57 44.73 86.12
  Q 46.18 91.18 46.20 96.63
  Q 46.21 97.12 45.74 97.28
  Q 44.74 97.62 44.28 96.64
  Q 43.71 95.44 42.89 94.58
  Q 42.12 93.78 41.73 92.80
  Q 39.91 88.29 39.33 84.01
  A 1.72 1.71 85.3 0 0 37.59 82.53
  L 30.77 82.70
  Q 30.11 82.72 30.43 83.30
  Q 33.68 89.15 37.30 94.27
  Q 38.00 95.27 36.98 95.96
  A 0.63 0.62 57.4 0 0 36.80 96.80
  Q 37.26 97.56 38.17 97.60
  A 0.89 0.89 0.0 0 1 38.65 99.22
  L 38.11 99.61
  Q 37.90 99.81 37.29 99.57
  Q 37.64 99.26 37.65 98.83
  A 0.86 0.86 0.0 0 0 36.18 98.22
  Q 34.95 99.49 33.84 98.26
  Q 33.50 97.88 33.06 98.12
  Q 32.23 98.58 31.41 98.21
  A 1.07 1.05 1.0 0 1 30.88 97.67
  Q 27.18 89.23 21.63 82.04
  A 3.75 3.70 23.0 0 1 20.86 80.17
  Q 20.29 75.46 20.76 70.91
  C 21.00 68.63 20.42 66.46 20.38 64.17
  Q 20.37 63.67 20.68 64.06
  Q 20.93 64.38 20.91 64.76
  Q 20.88 65.22 21.15 65.59
  L 22.10 66.88
  A 1.47 1.42 27.0 0 1 22.38 67.70
  L 22.40 71.24
  Q 22.41 71.72 22.09 72.09
  Q 20.82 73.59 21.94 75.28
  Q 22.24 75.73 22.73 75.51
  Q 23.92 74.99 23.92 73.41
  Q 24.22 74.95 27.61 74.34
  Q 32.05 73.41 34.50 73.70
  Q 36.71 73.96 36.83 71.16
  Q 37.15 68.72 38.60 66.78
  Q 39.42 65.70 41.28 64.70
  Q 42.82 63.88 44.30 62.99
  L 47.04 62.82
  Q 47.76 62.77 47.44 62.13
  C 46.97 61.19 45.41 60.98 44.74 59.86
  Q 44.24 59.03 43.58 58.36
  Q 42.54 57.33 41.39 56.28
  Q 41.14 53.92 39.21 54.49
  Q 39.17 53.19 38.96 52.96
  L 45.36 49.49
  Q 45.79 49.26 45.60 48.81
  C 44.37 46.04 40.35 45.20 37.60 44.96
  L 38.16 40.28
  Q 38.47 39.02 39.21 38.76
  Q 39.74 38.58 40.68 39.18
  Q 45.78 42.38 51.03 45.52
  Z"
/>
<path fill="#d6ccd2" d="
  M 38.16 40.28
  L 37.60 44.96
  L 35.80 44.89
  L 36.72 44.86
  Q 37.25 44.85 37.10 44.33
  Q 36.66 42.89 37.38 41.10
  Q 37.95 41.11 38.16 40.28
  Z"
/>
<path fill="#887c91" d="
  M 87.06 43.22
  Q 86.06 43.53 85.77 44.20
  Q 84.38 47.33 81.39 45.93
  Q 81.08 45.78 80.92 45.47
  Q 80.79 45.22 80.98 45.02
  A 0.58 0.57 26.5 0 1 81.53 44.84
  Q 83.26 45.24 84.91 43.81
  Q 85.42 43.37 84.78 43.16
  L 83.47 42.72
  Q 82.96 42.41 83.14 41.86
  Q 83.34 41.25 83.92 41.53
  L 86.16 42.59
  A 0.55 0.55 0.0 0 0 86.95 42.08
  L 86.94 41.46
  A 0.51 0.50 -87.4 0 1 87.49 40.95
  Q 88.00 40.99 88.05 41.50
  Q 88.17 42.65 87.06 43.22
  Z"
/>
<path fill="#4e4951" d="
  M 37.38 41.10
  Q 36.66 42.89 37.10 44.33
  Q 37.25 44.85 36.72 44.86
  L 35.80 44.89
  Q 33.08 43.20 37.38 41.10
  Z"
/>
<path fill="#887c91" d="
  M 88.52 44.22
  Q 88.16 43.72 88.66 43.34
  Q 89.24 42.91 89.75 43.41
  L 91.69 45.31
  Q 92.38 45.98 91.42 45.92
  Q 89.82 45.82 88.52 44.22
  Z"
/>
<path fill="#887c91" d="
  M 95.26 44.18
  Q 99.46 44.69 98.02 48.30
  Q 93.53 46.25 95.26 44.18
  Z"
/>
<path fill="#2e2f2e" d="
  M 38.96 52.96
  Q 39.17 53.19 39.21 54.49
  Q 38.86 55.50 38.19 56.25
  Q 37.33 56.31 37.03 55.97
  Q 36.76 55.67 36.95 55.31
  Q 38.33 52.79 36.26 50.99
  Q 34.68 49.62 35.24 51.63
  L 37.06 58.21
  L 36.67 58.56
  Q 35.47 57.94 34.53 58.97
  Q 33.83 59.73 33.47 58.76
  Q 33.35 58.46 33.49 58.16
  Q 33.85 57.37 33.00 57.20
  Q 31.00 56.79 30.96 54.19
  L 30.94 52.76
  Q 30.93 52.13 31.56 52.09
  Q 31.74 52.08 31.91 52.14
  Q 32.56 52.39 32.16 52.96
  Q 30.86 54.82 33.23 56.12
  Q 33.80 56.43 33.73 55.79
  L 33.42 52.77
  Q 33.34 52.02 32.72 51.61
  Q 30.84 50.36 29.81 51.96
  Q 27.97 51.71 27.61 50.27
  Q 27.49 49.77 27.92 49.49
  Q 29.74 48.28 31.28 46.72
  A 1.47 1.42 20.0 0 1 32.24 46.29
  Q 37.93 45.97 38.24 51.74
  Q 38.27 52.25 38.96 52.96
  Z"
/>
<path fill="#4e4951" d="
  M 104.42 49.46
  A 0.87 0.87 0.0 0 1 104.51 48.48
  Q 105.01 47.86 105.53 48.48
  A 1.17 1.09 59.9 0 1 105.11 50.29
  Q 104.92 50.36 104.42 49.46
  Z"
/>
<path fill="#2e2f2e" d="
  M 111.96 55.30
  Q 113.21 54.32 112.66 52.47
  A 1.92 1.91 78.4 0 0 110.61 51.11
  Q 108.75 51.31 107.03 52.23
  Q 106.71 51.89 105.82 51.49
  Q 106.85 51.84 106.95 50.91
  Q 107.01 50.43 107.45 50.26
  Q 107.76 50.15 107.96 50.46
  Q 108.52 51.35 108.88 50.38
  L 109.06 49.89
  Q 109.24 49.39 109.71 49.16
  Q 113.83 47.16 116.21 51.27
  Q 116.85 52.35 117.41 55.38
  Q 117.52 56.01 117.03 56.42
  L 114.47 58.58
  Q 113.95 59.01 113.36 58.68
  Q 111.91 57.88 109.99 58.48
  Q 108.20 59.03 109.31 57.53
  Q 109.89 56.73 110.97 56.94
  Q 111.61 57.06 111.59 56.41
  Q 111.57 55.69 111.96 55.30
  Z"
/>
<path fill="#2e2f34" d="
  M 105.82 51.49
  Q 106.71 51.89 107.03 52.23
  Q 106.21 53.30 105.92 54.32
  Q 105.76 54.86 106.32 54.97
  Q 107.33 55.17 108.10 54.57
  A 0.83 0.81 -47.5 0 1 109.02 54.52
  Q 109.48 54.80 109.85 54.44
  Q 110.23 54.06 110.70 54.31
  Q 111.11 54.52 111.33 55.04
  Q 111.60 55.82 110.87 55.92
  Q 109.67 56.09 108.48 55.69
  A 0.54 0.54 0.0 0 0 107.77 56.31
  L 108.10 57.85
  Q 108.21 58.39 107.79 58.73
  Q 107.23 59.20 106.43 59.05
  Q 105.77 58.92 105.44 59.50
  Q 105.30 59.74 105.27 60.00
  Q 105.14 60.84 104.47 61.35
  Q 103.34 62.20 102.99 63.56
  C 102.29 66.35 99.99 68.12 97.31 68.74
  C 95.33 69.20 94.66 71.06 92.94 71.81
  Q 91.32 72.51 89.24 72.34
  Q 88.72 72.29 88.37 71.90
  L 85.90 69.06
  Q 86.11 68.49 87.06 68.57
  Q 87.52 68.60 87.64 69.05
  Q 88.05 70.58 89.38 71.89
  Q 89.73 72.23 90.05 71.87
  Q 90.62 71.24 91.54 71.19
  Q 92.15 71.16 92.24 70.55
  Q 92.32 69.96 91.84 69.54
  Q 91.43 69.20 91.14 69.65
  Q 90.70 70.35 89.21 69.78
  A 0.96 0.96 0.0 0 1 88.60 68.71
  Q 88.73 67.91 88.04 67.79
  Q 87.32 67.66 87.29 66.92
  Q 87.26 66.08 86.86 66.27
  Q 86.71 65.05 85.76 65.04
  Q 84.61 65.04 83.74 64.57
  Q 83.43 64.41 83.14 64.61
  Q 82.67 64.93 82.50 65.45
  Q 82.26 66.20 83.04 66.13
  L 84.52 66.01
  Q 85.06 65.96 85.17 66.50
  Q 85.21 66.72 85.13 66.92
  Q 84.95 67.37 84.46 67.35
  Q 84.05 67.33 83.78 67.46
  L 82.00 67.35
  Q 81.47 67.32 81.49 66.79
  Q 81.56 63.87 83.20 61.53
  Q 83.48 61.13 83.50 60.83
  Q 83.54 60.22 82.91 60.18
  Q 83.74 59.80 84.23 59.92
  Q 84.56 59.99 84.87 60.83
  Q 85.29 61.96 86.43 62.15
  Q 85.73 61.98 85.38 62.50
  A 0.57 0.56 -51.6 0 0 85.46 63.24
  L 88.42 66.04
  Q 88.94 66.52 89.51 66.11
  L 92.09 64.24
  L 97.59 64.16
  A 0.96 0.96 0.0 0 0 98.25 62.52
  L 97.53 61.81
  Q 98.64 61.83 99.78 62.17
  Q 99.83 62.18 100.97 60.73
  Q 101.42 60.14 100.81 59.73
  Q 100.62 59.61 100.74 59.42
  Q 101.40 58.41 101.09 57.25
  Q 100.97 56.77 100.58 56.46
  L 96.14 53.00
  Q 97.23 52.81 97.72 53.43
  A 0.80 0.79 -60.7 0 0 99.13 53.03
  Q 99.21 52.33 98.56 51.77
  Q 99.40 51.98 100.04 50.94
  Q 100.35 50.48 100.30 49.81
  Q 100.25 48.97 100.86 49.55
  Q 101.40 50.06 102.23 50.18
  Q 103.01 50.30 103.43 50.97
  Q 104.30 52.36 105.82 51.49
  Z
  M 100.72 52.97
  Q 100.17 53.90 101.82 55.08
  Q 101.85 55.15 102.06 55.13
  Q 102.27 55.11 102.22 54.91
  Q 101.91 53.67 102.61 52.50
  A 0.87 0.86 -49.4 0 0 102.54 51.50
  Q 102.02 50.88 101.32 50.37
  Q 101.12 50.24 101.02 50.45
  L 100.89 50.71
  A 0.04 0.03 -78.3 0 0 100.92 50.76
  Q 101.69 50.81 101.64 51.43
  Q 101.59 51.95 101.19 52.28
  Q 100.80 52.60 100.72 52.97
  Z"
/>
<path fill="#887c91" d="
  M 101.82 55.08
  Q 102.28 54.72 102.13 53.75
  Q 102.01 52.91 100.72 52.97
  Q 100.80 52.60 101.19 52.28
  Q 101.59 51.95 101.64 51.43
  Q 101.69 50.81 100.92 50.76
  A 0.04 0.03 -78.3 0 1 100.89 50.71
  L 101.02 50.45
  Q 101.12 50.24 101.32 50.37
  Q 102.02 50.88 102.54 51.50
  A 0.87 0.86 -49.4 0 1 102.61 52.50
  Q 101.91 53.67 102.22 54.91
  Q 102.27 55.11 102.06 55.13
  Q 101.85 55.15 101.82 55.08
  Z"
/>
<path fill="#887c91" d="
  M 38.19 56.25
  L 37.06 58.21
  L 35.24 51.63
  Q 34.68 49.62 36.26 50.99
  Q 38.33 52.79 36.95 55.31
  Q 36.76 55.67 37.03 55.97
  Q 37.33 56.31 38.19 56.25
  Z"
/>
<path fill="#d6ccd2" d="
  M 30.96 54.19
  Q 30.97 52.30 29.81 51.96
  Q 30.84 50.36 32.72 51.61
  Q 33.34 52.02 33.42 52.77
  L 33.73 55.79
  Q 33.80 56.43 33.23 56.12
  Q 30.86 54.82 32.16 52.96
  Q 32.56 52.39 31.91 52.14
  Q 31.74 52.08 31.56 52.09
  Q 30.93 52.13 30.94 52.76
  L 30.96 54.19
  Z"
/>
<path fill="#d6ccd2" d="
  M 111.96 55.30
  L 111.33 55.04
  Q 111.11 54.52 110.70 54.31
  Q 110.23 54.06 109.85 54.44
  Q 109.48 54.80 109.02 54.52
  A 0.83 0.81 -47.5 0 0 108.10 54.57
  Q 107.33 55.17 106.32 54.97
  Q 105.76 54.86 105.92 54.32
  Q 106.21 53.30 107.03 52.23
  Q 108.75 51.31 110.61 51.11
  A 1.92 1.91 78.4 0 1 112.66 52.47
  Q 113.21 54.32 111.96 55.30
  Z"
/>
<path fill="#887c91" d="
  M 90.10 55.62
  C 89.69 57.49 87.63 59.15 85.83 59.38
  Q 85.13 59.48 85.70 59.05
  L 88.95 56.59
  A 1.04 1.03 -22.6 0 0 89.36 55.61
  Q 89.09 53.80 90.95 52.68
  Q 91.38 52.41 91.62 51.97
  Q 91.95 51.36 92.60 51.30
  Q 93.69 51.19 92.98 52.02
  L 90.42 54.98
  Q 90.17 55.26 90.10 55.62
  Z"
/>
<path fill="#4e4951" d="
  M 96.14 53.00
  L 100.58 56.46
  Q 100.97 56.77 101.09 57.25
  Q 101.40 58.41 100.74 59.42
  Q 100.62 59.61 100.81 59.73
  Q 101.42 60.14 100.97 60.73
  Q 99.83 62.18 99.78 62.17
  Q 98.64 61.83 97.53 61.81
  Q 95.73 61.24 93.76 61.29
  A 1.00 0.99 2.9 0 1 92.74 60.17
  Q 92.90 58.96 93.33 57.71
  Q 93.73 56.55 92.65 56.17
  Q 92.15 56.00 92.35 55.51
  Q 92.95 54.03 94.21 52.76
  Q 95.02 51.94 96.14 53.00
  Z"
/>
<path fill="#d6ccd2" d="
  M 100.72 52.97
  Q 102.01 52.91 102.13 53.75
  Q 102.28 54.72 101.82 55.08
  Q 100.17 53.90 100.72 52.97
  Z"
/>
<path fill="#d6ccd2" d="
  M 41.39 56.28
  Q 40.99 58.58 41.91 61.17
  A 1.00 0.97 -1.6 0 0 42.57 61.78
  Q 43.29 61.98 43.98 62.18
  Q 44.59 62.35 44.30 62.99
  Q 42.82 63.88 41.28 64.70
  Q 39.42 65.70 38.60 66.78
  Q 37.15 68.72 36.83 71.16
  Q 35.99 70.00 35.98 69.56
  Q 34.09 65.59 35.29 62.43
  Q 36.29 60.61 36.67 58.56
  L 37.06 58.21
  L 38.19 56.25
  Q 38.86 55.50 39.21 54.49
  Q 41.14 53.92 41.39 56.28
  Z"
/>
<path fill="#887c91" d="
  M 41.39 56.28
  Q 42.54 57.33 43.58 58.36
  Q 44.24 59.03 44.74 59.86
  C 45.41 60.98 46.97 61.19 47.44 62.13
  Q 47.76 62.77 47.04 62.82
  L 44.30 62.99
  Q 44.59 62.35 43.98 62.18
  Q 43.29 61.98 42.57 61.78
  A 1.00 0.97 -1.6 0 1 41.91 61.17
  Q 40.99 58.58 41.39 56.28
  Z"
/>
<path fill="#2e2f34" d="
  M 35.29 62.43
  Q 34.09 65.59 35.98 69.56
  C 33.95 68.49 34.04 65.80 33.71 63.86
  Q 33.62 63.36 33.93 62.95
  Q 34.63 62.03 35.29 62.43
  Z"
/>
<path fill="#bf94ee" d="
  M 86.43 62.15
  Q 89.59 62.65 92.09 64.24
  L 89.51 66.11
  Q 88.94 66.52 88.42 66.04
  L 85.46 63.24
  A 0.57 0.56 -51.6 0 1 85.38 62.50
  Q 85.73 61.98 86.43 62.15
  Z"
/>
<path fill="#d6ccd2" d="
  M 86.86 66.27
  Q 87.04 66.93 86.97 67.49
  Q 86.90 68.06 86.35 67.89
  Q 86.18 67.83 85.99 67.90
  Q 85.68 68.00 85.66 68.33
  L 85.64 68.72
  Q 85.33 67.23 83.78 67.46
  Q 84.05 67.33 84.46 67.35
  Q 84.95 67.37 85.13 66.92
  Q 85.21 66.72 85.17 66.50
  Q 85.06 65.96 84.52 66.01
  L 83.04 66.13
  Q 82.26 66.20 82.50 65.45
  Q 82.67 64.93 83.14 64.61
  Q 83.43 64.41 83.74 64.57
  Q 84.61 65.04 85.76 65.04
  Q 86.71 65.05 86.86 66.27
  Z"
/>
<path fill="#887c91" d="
  M 86.86 66.27
  Q 87.26 66.08 87.29 66.92
  Q 87.32 67.66 88.04 67.79
  Q 88.73 67.91 88.60 68.71
  A 0.96 0.96 0.0 0 0 89.21 69.78
  Q 90.70 70.35 91.14 69.65
  Q 91.43 69.20 91.84 69.54
  Q 92.32 69.96 92.24 70.55
  Q 92.15 71.16 91.54 71.19
  Q 90.62 71.24 90.05 71.87
  Q 89.73 72.23 89.38 71.89
  Q 88.05 70.58 87.64 69.05
  Q 87.52 68.60 87.06 68.57
  Q 86.11 68.49 85.90 69.06
  Q 85.70 69.00 85.64 68.72
  L 85.66 68.33
  Q 85.68 68.00 85.99 67.90
  Q 86.18 67.83 86.35 67.89
  Q 86.90 68.06 86.97 67.49
  Q 87.04 66.93 86.86 66.27
  Z"
/>
<path fill="#4e4951" d="
  M 27.61 74.34
  Q 24.22 74.95 23.92 73.41
  Q 23.95 71.83 24.36 70.71
  Q 24.65 69.90 24.82 70.75
  L 25.38 73.59
  Q 25.47 74.05 25.91 74.17
  Q 26.66 74.38 27.61 74.34
  Z"
/>
<path fill="#4e4951" d="
  M 84.13 84.98
  Q 83.78 84.72 82.40 84.65
  Q 82.63 84.58 82.78 84.50
  Q 83.16 84.31 82.95 83.93
  Q 82.33 82.82 83.15 81.74
  Q 83.51 81.28 83.59 80.70
  L 84.66 73.16
  Q 84.70 72.85 85.01 72.91
  L 85.35 72.98
  A 0.14 0.13 18.8 0 1 85.45 73.17
  Q 84.68 75.04 85.19 77.13
  C 85.88 79.93 85.37 82.48 84.13 84.98
  Z"
/>
<path fill="#4e4951" d="
  M 86.72 85.14
  A 0.82 0.81 -76.1 0 1 86.23 84.32
  Q 86.32 83.42 86.92 82.71
  Q 87.45 82.09 87.44 81.28
  Q 87.42 79.38 89.10 77.87
  Q 89.42 77.58 89.48 78.00
  L 89.96 81.39
  Q 90.00 81.73 89.76 81.97
  Q 88.60 83.16 89.20 85.01
  A 0.66 0.66 0.0 0 1 88.31 85.82
  L 86.72 85.14
  Z"
/>
<path fill="#887c91" d="
  M 96.48 88.19
  Q 96.18 87.88 95.99 88.00
  Q 95.73 85.67 93.21 85.78
  Q 92.17 85.82 92.86 85.03
  Q 93.28 84.55 93.15 83.87
  Q 92.95 82.84 93.90 83.26
  Q 94.53 83.54 94.92 84.08
  Q 95.20 84.46 95.62 84.64
  Q 97.46 85.43 96.48 88.19
  Z"
/>
<path fill="#4e4951" d="
  M 89.01 95.40
  Q 87.85 94.76 86.25 94.87
  Q 85.46 94.93 84.74 94.26
  Q 84.26 93.84 84.21 93.56
  A 0.32 0.32 0.0 0 1 84.61 93.20
  Q 86.24 93.68 87.79 93.91
  Q 88.27 93.98 88.71 94.26
  Q 89.73 94.91 89.01 95.40
  Z"
/>
<path fill="#2e2f2e" d="
  M 84.74 94.26
  Q 85.46 94.93 86.25 94.87
  Q 87.85 94.76 89.01 95.40
  Q 89.29 95.66 88.84 97.47
  Q 88.16 98.72 87.37 98.93
  Q 86.86 99.07 86.50 98.69
  Q 84.84 96.96 83.98 94.52
  Q 84.14 94.36 84.74 94.26
  Z"
/>
<path fill="#2e2f2e" d="
  M 37.29 99.57
  Q 37.90 99.81 38.11 99.61
  Q 38.61 100.15 38.66 100.59
  Q 38.74 101.16 38.19 101.32
  L 36.76 101.72
  A 0.90 0.90 0.0 0 1 35.65 100.61
  Q 35.99 99.39 37.29 99.57
  Z"
/>
<path fill="#2e2f34" d="
  M 42.16 110.30
  Q 40.44 114.10 35.75 116.95
  Q 35.22 117.27 35.02 116.69
  L 34.37 114.84
  Q 34.20 114.35 34.47 113.90
  L 36.47 110.58
  Q 36.76 110.10 36.46 109.63
  L 34.88 107.09
  Q 34.59 106.63 35.02 106.29
  Q 36.03 105.51 36.35 104.31
  Q 36.57 103.48 37.42 103.51
  C 38.71 103.56 40.97 103.59 40.88 101.63
  Q 40.77 98.94 42.74 100.78
  L 46.09 103.91
  Q 46.45 104.24 46.28 104.70
  C 45.38 107.06 43.21 107.98 42.16 110.30
  Z"
/>
<path fill="#2e2f34" d="
  M 24.64 117.92
  Q 25.53 116.76 24.88 115.25
  A 0.71 0.71 0.0 0 1 25.68 114.28
  L 30.06 115.23
  Q 31.53 115.55 31.60 117.05
  L 31.92 123.05
  Q 31.99 124.37 30.74 123.93
  Q 28.56 123.15 26.17 122.74
  C 24.89 122.52 23.87 121.58 22.50 121.94
  A 1.26 1.25 -5.8 0 1 20.93 120.66
  Q 21.13 116.88 20.54 113.43
  Q 20.49 113.17 20.76 113.22
  L 23.68 113.84
  Q 23.97 113.90 23.97 114.19
  L 24.05 117.72
  Q 24.07 118.65 24.64 117.92
  Z"
/>
<path fill="#2e2f34" d="
  M 103.36 138.39
  A 0.42 0.41 -41.6 0 1 103.32 138.93
  L 103.05 139.20
  A 0.28 0.28 0.0 0 1 102.60 139.12
  Q 102.10 138.06 102.16 136.66
  Q 102.18 136.13 102.69 135.97
  Q 103.29 135.78 103.89 136.20
  Q 104.31 136.50 103.83 136.69
  Q 102.48 137.23 103.36 138.39
  Z"
/>
<path fill="#2e2f34" d="
  M 108.59 137.16
  L 108.70 137.84
  Q 108.80 138.46 108.20 138.27
  Q 107.32 137.99 106.54 138.21
  Q 106.57 139.04 104.84 138.91
  Q 104.55 138.03 105.00 137.16
  Q 105.24 136.69 105.76 136.77
  L 108.59 137.16
  Z"
/>
<path fill="#4e4951" d="
  M 108.59 137.16
  C 110.22 138.09 111.78 137.22 113.02 138.01
  Q 114.29 138.81 113.81 140.43
  Q 113.60 141.13 112.89 141.29
  Q 110.72 141.79 109.61 140.48
  Q 109.30 140.12 108.83 140.09
  Q 107.79 140.01 106.83 139.51
  L 107.65 139.34
  Q 108.35 139.19 107.96 138.59
  Q 107.59 138.01 106.54 138.21
  Q 107.32 137.99 108.20 138.27
  Q 108.80 138.46 108.70 137.84
  L 108.59 137.16
  Z
  M 112.01 140.16
  Q 112.19 140.14 112.35 140.08
  Q 112.59 139.99 112.62 139.72
  Q 112.64 139.56 112.62 139.40
  Q 112.58 138.80 112.03 139.05
  Q 111.25 139.39 110.67 140.24
  Q 110.46 140.56 110.82 140.42
  Q 111.17 140.29 111.54 140.22
  Q 111.77 140.18 112.01 140.16
  Z"
/>
<path fill="#887c91" d="
  M 106.54 138.21
  Q 107.59 138.01 107.96 138.59
  Q 108.35 139.19 107.65 139.34
  L 106.83 139.51
  Q 106.28 139.01 104.84 138.91
  Q 106.57 139.04 106.54 138.21
  Z"
/>
<path fill="#887c91" d="
  M 111.54 140.22
  Q 111.17 140.29 110.82 140.42
  Q 110.46 140.56 110.67 140.24
  Q 111.25 139.39 112.03 139.05
  Q 112.58 138.80 112.62 139.40
  Q 112.64 139.56 112.62 139.72
  Q 112.59 139.99 112.35 140.08
  Q 112.19 140.14 112.01 140.16
  Q 111.77 140.18 111.54 140.22
  Z"
/>
</svg>
